<?xml version="1.0" encoding="utf-8"?>
<!-- Generator: Adobe Illustrator 16.2.0, SVG Export Plug-In . SVG Version: 6.00 Build 0)  -->
<!DOCTYPE svg PUBLIC "-//W3C//DTD SVG 1.1//EN" "http://www.w3.org/Graphics/SVG/1.1/DTD/svg11.dtd">
<svg version="1.1" id="Laag_2" xmlns="http://www.w3.org/2000/svg" xmlns:xlink="http://www.w3.org/1999/xlink" x="0px" y="0px"
	 width="16px" height="16px" viewBox="0.511 0.495 16 16" enable-background="new 0.511 0.495 16 16" xml:space="preserve">
<g>
	<defs>
		<rect id="SVGID_1_" x="0.511" y="0.495" width="16" height="16"/>
	</defs>
	<clipPath id="SVGID_2_">
		<use xlink:href="#SVGID_1_"  overflow="visible"/>
	</clipPath>
	<g clip-path="url(#SVGID_2_)">
		<path fill="#9AA7B0" fill-opacity="0.8" d="M3.511,5.495h4v-4L3.511,5.495z"/>
	</g>
</g>
<g>
	<defs>
		<rect id="SVGID_3_" x="0.511" y="0.495" width="16" height="16"/>
	</defs>
	<clipPath id="SVGID_4_">
		<use xlink:href="#SVGID_3_"  overflow="visible"/>
	</clipPath>
	<g clip-path="url(#SVGID_4_)">
		<path fill="#9AA7B0" fill-opacity="0.8" d="M3.511,8.495v-2h5v-5h5v7H3.511z"/>
	</g>
</g>
<g>
	<defs>
		<rect id="SVGID_5_" x="0.511" y="0.495" width="16" height="16"/>
	</defs>
	<clipPath id="SVGID_6_">
		<use xlink:href="#SVGID_5_"  overflow="visible"/>
	</clipPath>
	<g clip-path="url(#SVGID_6_)">
		<path fill="#9AA7B0" fill-opacity="0.6" d="M1.511,9.494h15v7h-15V9.494z"/>
	</g>
</g>
<g>
	<defs>
		<rect id="SVGID_7_" x="0.511" y="0.495" width="16" height="16"/>
	</defs>
	<clipPath id="SVGID_8_">
		<use xlink:href="#SVGID_7_"  overflow="visible"/>
	</clipPath>
</g>
<g opacity="0.7">
	<path fill="#231F20" d="M5.697,15.395l-0.448-1.1H3.175l-0.448,1.1h-1.1l2.102-4.938h0.994l2.102,4.938H5.697z M4.212,11.752
		l-0.651,1.59h1.303L4.212,11.752z"/>
	<path fill="#231F20" d="M9.133,15.472c-1.317,0-2.122-0.735-2.122-2.179v-2.801h1.078v2.773c0,0.799,0.399,1.211,1.057,1.211
		c0.658,0,1.059-0.398,1.059-1.176v-2.809h1.078v2.766C11.283,14.743,10.449,15.472,9.133,15.472z"/>
	<path fill="#231F20" d="M15.057,15.395l-1.1-1.682l-1.107,1.682h-1.227l1.709-2.493l-1.639-2.409h1.262l1.029,1.59l1.037-1.59
		h1.225l-1.639,2.395l1.709,2.508H15.057z"/>
</g>
</svg>
