<?xml version="1.0" encoding="utf-8"?>
<!-- Generator: Adobe Illustrator 16.2.0, SVG Export Plug-In . SVG Version: 6.00 Build 0)  -->
<!DOCTYPE svg PUBLIC "-//W3C//DTD SVG 1.1//EN" "http://www.w3.org/Graphics/SVG/1.1/DTD/svg11.dtd">
<svg version="1.1" id="Laag_1" xmlns="http://www.w3.org/2000/svg" xmlns:xlink="http://www.w3.org/1999/xlink" x="0px" y="0px"
	 width="16px" height="16px" viewBox="0.511 0.495 16 16" enable-background="new 0.511 0.495 16 16" xml:space="preserve">
<rect x="0.511" y="0.495" fill="#FFFFFF" fill-opacity="0" width="16.001" height="16"/>
<g>
	<defs>
		<rect id="SVGID_1_" x="0.511" y="0.495" width="16.001" height="16"/>
	</defs>
	<clipPath id="SVGID_2_">
		<use xlink:href="#SVGID_1_"  overflow="visible"/>
	</clipPath>
	<g clip-path="url(#SVGID_2_)">
		<path fill="#62B543" fill-opacity="0.6" d="M1.511,8.494c0-3.866,3.134-7,7-7s7.001,3.134,7.001,7c0,3.867-3.135,7-7.001,7
			S1.511,12.361,1.511,8.494z"/>
	</g>
</g>
<g>
	<defs>
		<rect id="SVGID_3_" x="0.511" y="0.495" width="16.001" height="16"/>
	</defs>
	<clipPath id="SVGID_4_">
		<use xlink:href="#SVGID_3_"  overflow="visible"/>
	</clipPath>
</g>
<g opacity="0.7">
	<path fill="#231F20" d="M10.803,11.201c-0.176,0.135-0.367,0.252-0.57,0.352c-0.205,0.098-0.428,0.174-0.672,0.225
		c-0.242,0.051-0.51,0.076-0.805,0.076c-0.462,0-0.888-0.084-1.278-0.252s-0.728-0.397-1.013-0.688s-0.509-0.634-0.671-1.03
		S5.552,9.061,5.552,8.604c0-0.45,0.079-0.873,0.238-1.269c0.158-0.396,0.383-0.742,0.671-1.04c0.287-0.297,0.63-0.531,1.025-0.702
		c0.396-0.171,0.834-0.257,1.314-0.257c0.289,0,0.551,0.024,0.787,0.072c0.238,0.048,0.455,0.116,0.652,0.203
		c0.199,0.087,0.381,0.19,0.549,0.31c0.168,0.12,0.328,0.252,0.479,0.396l-0.711,0.819c-0.252-0.234-0.52-0.423-0.801-0.567
		C9.473,6.427,9.152,6.354,8.793,6.354c-0.301,0-0.579,0.059-0.833,0.176C7.705,6.647,7.484,6.806,7.298,7.007
		c-0.187,0.201-0.33,0.437-0.433,0.706c-0.102,0.27-0.152,0.562-0.152,0.873c0,0.313,0.051,0.605,0.152,0.878
		c0.103,0.273,0.246,0.512,0.433,0.716c0.186,0.204,0.406,0.364,0.661,0.481s0.532,0.175,0.833,0.175
		c0.383,0,0.713-0.072,0.988-0.22c0.277-0.147,0.549-0.347,0.82-0.599l0.711,0.721C11.15,10.912,10.98,11.066,10.803,11.201z"/>
</g>
</svg>
