<?xml version="1.0" encoding="UTF-8" standalone="no"?>
<!-- Copyright 2000-2022 JetBrains s.r.o. and contributors. Use of this source code is governed by the Apache 2.0 license. -->

<svg
   xmlns:dc="http://purl.org/dc/elements/1.1/"
   xmlns:cc="http://creativecommons.org/ns#"
   xmlns:rdf="http://www.w3.org/1999/02/22-rdf-syntax-ns#"
   xmlns:svg="http://www.w3.org/2000/svg"
   xmlns="http://www.w3.org/2000/svg"
   xmlns:sodipodi="http://sodipodi.sourceforge.net/DTD/sodipodi-0.dtd"
   xmlns:inkscape="http://www.inkscape.org/namespaces/inkscape"
   width="16"
   height="16"
   viewBox="0 0 16 16"
   fill="none"
   id="svg2"
   version="1.1"
   inkscape:version="0.91 r13725"
   sodipodi:docname="dot-subsubsec_dark.svg">
  <metadata
     id="metadata12">
    <rdf:RDF>
      <cc:Work
         rdf:about="">
        <dc:format>image/svg+xml</dc:format>
        <dc:type
           rdf:resource="http://purl.org/dc/dcmitype/StillImage" />
      </cc:Work>
    </rdf:RDF>
  </metadata>
  <defs
     id="defs10" />
  <sodipodi:namedview
     pagecolor="#ffffff"
     bordercolor="#666666"
     borderopacity="1"
     objecttolerance="10"
     gridtolerance="10"
     guidetolerance="10"
     inkscape:pageopacity="0"
     inkscape:pageshadow="2"
     inkscape:window-width="1278"
     inkscape:window-height="1368"
     id="namedview8"
     showgrid="false"
     inkscape:zoom="29.5"
     inkscape:cx="7.235307"
     inkscape:cy="4.4244769"
     inkscape:window-x="2553"
     inkscape:window-y="0"
     inkscape:window-maximized="0"
     inkscape:current-layer="svg2" />
  <circle
     cx="8"
     cy="8"
     r="6.5"
     fill="#E7EFFD"
     stroke="#3574F0"
     id="circle4"
     style="fill:#25324d;fill-opacity:1;stroke:#548af7;stroke-opacity:1" />
  <path
     style="clip-rule:evenodd;fill:#548af7;fill-opacity:1;fill-rule:evenodd"
     d="m 6.0531375,4.4980469 0,0.00195 -0.9980469,0 -1.5,0 0,1 1.5,0 0,5.0000001 -1.5,0 0,1 1.5,0 1,0 1.5,0 0,-0.002 0.9921757,0 0,0.002 1.4999817,0 1,0 1.5,0 0,-1 -1.5,0 0,-5.0000001 1.5,0 0,-1 -1.5,0 -0.994141,0 0,-0.00195 -1.4999817,0 -0.9999878,0 -1.5,0 z M 6.0550906,5.5 l 1.4980469,0 0,4.998047 -1.4980469,0 0,-4.998047 z m 2.4980347,0 1.4941227,0 0,4.998047 -1.4941227,0 0,-4.998047 z"
     id="path6-2"
     inkscape:connector-curvature="0" />
</svg>
