<?xml version="1.0" encoding="utf-8"?>
<!-- Generator: Adobe Illustrator 16.2.0, SVG Export Plug-In . SVG Version: 6.00 Build 0)  -->
<!DOCTYPE svg PUBLIC "-//W3C//DTD SVG 1.1//EN" "http://www.w3.org/Graphics/SVG/1.1/DTD/svg11.dtd">
<svg version="1.1" id="Laag_1" xmlns="http://www.w3.org/2000/svg" xmlns:xlink="http://www.w3.org/1999/xlink" x="0px" y="0px"
	 width="16px" height="16px" viewBox="0.511 0.495 16 16" enable-background="new 0.511 0.495 16 16" xml:space="preserve">
<rect x="0.511" y="0.495" fill="#FFFFFF" fill-opacity="0" width="16.001" height="16"/>
<g>
	<defs>
		<rect id="SVGID_1_" x="0.511" y="0.495" width="16.001" height="16"/>
	</defs>
	<clipPath id="SVGID_2_">
		<use xlink:href="#SVGID_1_"  overflow="visible"/>
	</clipPath>
	<g clip-path="url(#SVGID_2_)">
		<path fill="#40B6E0" fill-opacity="0.6" d="M1.511,8.494c0-3.866,3.134-7,7-7s7.001,3.134,7.001,7c0,3.867-3.135,7-7.001,7
			S1.511,12.361,1.511,8.494z"/>
	</g>
</g>
<g>
	<defs>
		<rect id="SVGID_3_" x="0.511" y="0.495" width="16.001" height="16"/>
	</defs>
	<clipPath id="SVGID_4_">
		<use xlink:href="#SVGID_3_"  overflow="visible"/>
	</clipPath>
</g>
<g opacity="0.7">
	<path fill="#231F20" d="M7.878,10.786c-0.157,0.12-0.326,0.224-0.508,0.312s-0.38,0.155-0.596,0.2
		c-0.216,0.046-0.455,0.068-0.716,0.068c-0.411,0-0.79-0.075-1.137-0.224c-0.347-0.15-0.646-0.354-0.899-0.613
		C3.769,10.271,3.57,9.966,3.426,9.614C3.282,9.262,3.211,8.883,3.211,8.478c0-0.4,0.07-0.776,0.211-1.128
		c0.142-0.352,0.341-0.66,0.597-0.924c0.256-0.264,0.56-0.472,0.912-0.624C5.282,5.65,5.672,5.574,6.099,5.574
		c0.256,0,0.489,0.021,0.699,0.064c0.211,0.042,0.404,0.103,0.58,0.18c0.177,0.078,0.339,0.169,0.488,0.276
		C8.016,6.201,8.157,6.318,8.29,6.446L7.658,7.174C7.435,6.966,7.197,6.798,6.946,6.67S6.41,6.478,6.09,6.478
		c-0.267,0-0.513,0.052-0.739,0.156C5.123,6.738,4.928,6.879,4.763,7.058C4.597,7.237,4.469,7.446,4.378,7.686
		c-0.091,0.24-0.136,0.499-0.136,0.776S4.287,9,4.378,9.242s0.219,0.455,0.385,0.636c0.165,0.182,0.36,0.324,0.588,0.429
		c0.227,0.104,0.473,0.155,0.739,0.155c0.342,0,0.635-0.065,0.881-0.196c0.245-0.131,0.487-0.308,0.728-0.531l0.632,0.64
		C8.187,10.529,8.035,10.666,7.878,10.786z"/>
	<path fill="#231F20" d="M9.858,8.91v2.359H8.882v-5.6h0.977v2.328h2.688V5.67h0.977v5.6h-0.977V8.91H9.858z"/>
</g>
</svg>
