<?xml version="1.0" encoding="UTF-8" standalone="no"?>
<!-- Copyright 2000-2022 JetBrains s.r.o. and contributors. Use of this source code is governed by the Apache 2.0 license. -->

<svg
   xmlns:dc="http://purl.org/dc/elements/1.1/"
   xmlns:cc="http://creativecommons.org/ns#"
   xmlns:rdf="http://www.w3.org/1999/02/22-rdf-syntax-ns#"
   xmlns:svg="http://www.w3.org/2000/svg"
   xmlns="http://www.w3.org/2000/svg"
   xmlns:sodipodi="http://sodipodi.sourceforge.net/DTD/sodipodi-0.dtd"
   xmlns:inkscape="http://www.inkscape.org/namespaces/inkscape"
   width="16"
   height="16"
   viewBox="0 0 16 16"
   fill="none"
   id="svg2"
   version="1.1"
   inkscape:version="0.91 r13725"
   sodipodi:docname="dot-subsec.svg">
  <metadata
     id="metadata12">
    <rdf:RDF>
      <cc:Work
         rdf:about="">
        <dc:format>image/svg+xml</dc:format>
        <dc:type
           rdf:resource="http://purl.org/dc/dcmitype/StillImage" />
      </cc:Work>
    </rdf:RDF>
  </metadata>
  <defs
     id="defs10" />
  <sodipodi:namedview
     pagecolor="#ffffff"
     bordercolor="#666666"
     borderopacity="1"
     objecttolerance="10"
     gridtolerance="10"
     guidetolerance="10"
     inkscape:pageopacity="0"
     inkscape:pageshadow="2"
     inkscape:window-width="1278"
     inkscape:window-height="1368"
     id="namedview8"
     showgrid="false"
     inkscape:zoom="29.5"
     inkscape:cx="8.8024121"
     inkscape:cy="6.330995"
     inkscape:window-x="2553"
     inkscape:window-y="0"
     inkscape:window-maximized="0"
     inkscape:current-layer="svg2" />
  <circle
     cx="8"
     cy="8"
     r="6.5"
     fill="#E7EFFD"
     stroke="#3574F0"
     id="circle4" />
  <path
     style="clip-rule:evenodd;fill:#3574f0;fill-opacity:1;fill-rule:evenodd"
     d="M 4.8300781 4.5 L 4.8300781 5.5 L 6.3300781 5.5 L 6.3300781 10.5 L 4.8300781 10.5 L 4.8300781 11.5 L 6.3300781 11.5 L 7.3222656 11.5 L 7.3300781 11.5 L 8.8222656 11.5 L 8.8300781 11.5 L 9.8222656 11.5 L 11.322266 11.5 L 11.322266 10.5 L 9.8222656 10.5 L 9.8222656 5.5 L 11.322266 5.5 L 11.322266 4.5 L 9.8222656 4.5 L 8.8300781 4.5 L 8.8222656 4.5 L 7.3300781 4.5 L 7.3222656 4.5 L 6.3300781 4.5 L 4.8300781 4.5 z M 7.3300781 5.5 L 8.8222656 5.5 L 8.8222656 10.5 L 7.3300781 10.5 L 7.3300781 5.5 z "
     id="path6-2" />
</svg>
