<?xml version="1.0" encoding="UTF-8" standalone="no"?>
<!-- Generator: Adobe Illustrator 16.2.0, SVG Export Plug-In . SVG Version: 6.00 Build 0)  -->

<svg
   xmlns:dc="http://purl.org/dc/elements/1.1/"
   xmlns:cc="http://creativecommons.org/ns#"
   xmlns:rdf="http://www.w3.org/1999/02/22-rdf-syntax-ns#"
   xmlns:svg="http://www.w3.org/2000/svg"
   xmlns="http://www.w3.org/2000/svg"
   xmlns:sodipodi="http://sodipodi.sourceforge.net/DTD/sodipodi-0.dtd"
   xmlns:inkscape="http://www.inkscape.org/namespaces/inkscape"
   version="1.1"
   id="Laag_1"
   x="0px"
   y="0px"
   width="13px"
   height="13px"
   viewBox="0 0 13 13"
   enable-background="new 0 0 13 13"
   xml:space="preserve"
   inkscape:version="0.91 r13725"
   sodipodi:docname="equation-preview_dark.svg"><metadata
     id="metadata13"><rdf:RDF><cc:Work
         rdf:about=""><dc:format>image/svg+xml</dc:format><dc:type
           rdf:resource="http://purl.org/dc/dcmitype/StillImage" /></cc:Work></rdf:RDF></metadata><defs
     id="defs11" /><sodipodi:namedview
     pagecolor="#ffffff"
     bordercolor="#666666"
     borderopacity="1"
     objecttolerance="10"
     gridtolerance="10"
     guidetolerance="10"
     inkscape:pageopacity="0"
     inkscape:pageshadow="2"
     inkscape:window-width="1465"
     inkscape:window-height="1164"
     id="namedview9"
     showgrid="false"
     inkscape:zoom="25.673415"
     inkscape:cx="6.8391143"
     inkscape:cy="3.2182967"
     inkscape:window-x="3426"
     inkscape:window-y="61"
     inkscape:window-maximized="0"
     inkscape:current-layer="Laag_1" /><path
     inkscape:connector-curvature="0"
     style="fill:#ebecf0;fill-opacity:1"
     d="m 3.01025,9.8709003 1,0 0,1.6290997 -1,0 0,-1.6290997 z m 0,-8.3709003 1,0 0,1.63908 -1,0 0,-1.63908 z m 0.4099,8.5164 C 2.94808,10.0164 2.52936,9.9307 2.164,9.7593003 1.79863,9.5847003 1.51248,9.3422003 1.30555,9.0318 1.10185,8.7182 1,8.3593 1,7.95513 l 0.99425,0 c 0,0.2328 0.05981,0.43974 0.17945,0.62077 0.12286,0.1811 0.29261,0.3234 0.50925,0.4268 0.21986,0.1003003 0.47045,0.1504003 0.75175,0.1504003 0.27483,0 0.51733,-0.0469 0.7275,-0.1407003 C 4.37236,8.9187 4.53403,8.7877 4.6472,8.6196 4.7636,8.45145 4.8218,8.25745 4.8218,8.03758 4.8218,7.75952 4.73773,7.52187 4.5696,7.32463 4.4047,7.12417 4.18321,6.99968 3.90515,6.95118 L 2.77995,6.76203 C 2.45338,6.70383 2.16723,6.58905 1.9215,6.41768 1.679,6.24308 1.49308,6.02645 1.36375,5.76778 c -0.12934,-0.2619 -0.194,-0.54643 -0.194,-0.8536 0,-0.36536 0.09538,-0.69355 0.28615,-0.98455 0.19076,-0.291 0.4559,-0.51895 0.7954,-0.68385 0.34273,-0.16813 0.7275,-0.2522 1.1543,-0.2522 0.43973,0 0.83096,0.08245 1.1737,0.24735 0.34273,0.16167 0.60948,0.388 0.80025,0.679 0.1908,0.28777 0.2861,0.61757 0.2861,0.9894 l -0.9942,0 C 4.67145,4.70563 4.6181,4.52457 4.5114,4.36613 4.40793,4.20447 4.26081,4.07998 4.07005,3.99268 3.88251,3.90215 3.66588,3.85688 3.42015,3.85688 3.17118,3.85688 2.95131,3.90053 2.76055,3.98783 2.57301,4.0719 2.4259,4.19153 2.3192,4.34673 2.21573,4.50193 2.164,4.683 2.164,4.88993 c 0,0.2425 0.0776,0.45105 0.2328,0.62565 0.1552,0.1746 0.36051,0.28454 0.61595,0.3298 l 1.1252,0.18915 c 0.32656,0.0582 0.61756,0.18269 0.873,0.37345 0.25866,0.19077 0.45751,0.4268 0.5965,0.7081 0.1423,0.2813 0.2134,0.57715 0.2134,0.88755 0,0.3783 -0.1018,0.72107 -0.3055,1.02817 C 5.31488,9.3358003 5.03196,9.5766003 4.6666,9.7545003 4.30123,9.9291003 3.88575,10.0164 3.42015,10.0164 Z"
     id="path6" /><path
     inkscape:connector-curvature="0"
     style="fill:#ebecf0;fill-opacity:1"
     d="m 9.21025,9.815816 1,0 0,1.629099 -1,0 0,-1.629099 z m 0,-8.3709007 1,0 0,1.63908 -1,0 0,-1.63908 z M 9.62015,9.961315 C 9.14808,9.961315 8.72936,9.875615 8.364,9.704216 7.99863,9.529616 7.71248,9.287116 7.50555,8.976715 7.30185,8.663115 7.2,8.304215 7.2,7.900045 l 0.99425,0 c 0,0.2328 0.05981,0.43974 0.17945,0.62077 0.12286,0.1811 0.29261,0.3234 0.50925,0.4268 0.21986,0.100301 0.47045,0.150401 0.75175,0.150401 0.27483,0 0.51733,-0.0469 0.7275,-0.140701 0.21016,-0.0937 0.37183,-0.2247 0.485,-0.3928 0.1164,-0.16815 0.1746,-0.36215 0.1746,-0.58202 0,-0.27806 -0.08407,-0.51571 -0.2522,-0.71295 -0.1649,-0.20046 -0.38639,-0.3249497 -0.66445,-0.3734497 l -1.1252,-0.18915 c -0.32657,-0.0582 -0.61272,-0.17298 -0.85845,-0.34435 -0.2425,-0.1746 -0.42842,-0.39123 -0.55775,-0.6499 -0.12934,-0.2619 -0.194,-0.54643 -0.194,-0.8536 0,-0.36536 0.09538,-0.69355 0.28615,-0.98455 0.19076,-0.291 0.4559,-0.51895 0.7954,-0.68385 0.34273,-0.16813 0.7275,-0.2522 1.1543,-0.2522 0.43973,0 0.83096,0.08245 1.1737,0.24735 0.34273,0.16167 0.60948,0.388 0.80025,0.679 0.1908,0.28777 0.2861,0.61757 0.2861,0.9894 l -0.9942,0 c 0,-0.2037 -0.05335,-0.38476 -0.16005,-0.5432 -0.10347,-0.16166 -0.25059,-0.28615 -0.44135,-0.37345 -0.18754,-0.09053 -0.40417,-0.1358 -0.6499,-0.1358 -0.24897,0 -0.46884,0.04365 -0.6596,0.13095 -0.18754,0.08407 -0.33465,0.2037 -0.44135,0.3589 -0.10347,0.1552 -0.1552,0.33627 -0.1552,0.5432 0,0.2425 0.0776,0.45105 0.2328,0.62565 0.1552,0.1746 0.36051,0.28454 0.61595,0.3298 l 1.1252,0.18915 c 0.32656,0.0582 0.61756,0.18269 0.873,0.37345 0.25866,0.19077 0.45751,0.4268 0.5965,0.7080997 0.1423,0.2813 0.2134,0.57715 0.2134,0.88755 0,0.3783 -0.1018,0.72107 -0.3055,1.02817 -0.20047,0.304001 -0.48339,0.544801 -0.84875,0.722701 -0.36537,0.1746 -0.78085,0.261899 -1.24645,0.261899 z"
     id="path6-6" /></svg>