<?xml version="1.0" encoding="UTF-8" standalone="no"?>
<!-- Generator: Adobe Illustrator 16.2.0, SVG Export Plug-In . SVG Version: 6.00 Build 0)  -->

<svg
   xmlns:dc="http://purl.org/dc/elements/1.1/"
   xmlns:cc="http://creativecommons.org/ns#"
   xmlns:rdf="http://www.w3.org/1999/02/22-rdf-syntax-ns#"
   xmlns:svg="http://www.w3.org/2000/svg"
   xmlns="http://www.w3.org/2000/svg"
   xmlns:sodipodi="http://sodipodi.sourceforge.net/DTD/sodipodi-0.dtd"
   xmlns:inkscape="http://www.inkscape.org/namespaces/inkscape"
   version="1.1"
   id="Laag_2"
   x="0px"
   y="0px"
   width="16px"
   height="16px"
   viewBox="0.511 0.495 16 16"
   enable-background="new 0.511 0.495 16 16"
   xml:space="preserve"
   inkscape:version="0.91 r13725"
   sodipodi:docname="font-overline_dark.svg"><metadata
     id="metadata13"><rdf:RDF><cc:Work
         rdf:about=""><dc:format>image/svg+xml</dc:format><dc:type
           rdf:resource="http://purl.org/dc/dcmitype/StillImage" /></cc:Work></rdf:RDF></metadata><defs
     id="defs11" /><sodipodi:namedview
     pagecolor="#ffffff"
     bordercolor="#666666"
     borderopacity="1"
     objecttolerance="10"
     gridtolerance="10"
     guidetolerance="10"
     inkscape:pageopacity="0"
     inkscape:pageshadow="2"
     inkscape:window-width="1599"
     inkscape:window-height="919"
     id="namedview9"
     showgrid="false"
     inkscape:zoom="32"
     inkscape:cx="5.5296999"
     inkscape:cy="8.0793206"
     inkscape:window-x="3114"
     inkscape:window-y="267"
     inkscape:window-maximized="0"
     inkscape:current-layer="Laag_2"
     showguides="true"
     inkscape:guide-bbox="true" /><path
     d="M 8.5109998,2.503917"
     id="path3"
     inkscape:connector-curvature="0"
     style="fill:#65b344" /><g
     style="font-style:normal;font-weight:normal;font-size:27.29205322px;line-height:125%;font-family:sans-serif;letter-spacing:0px;word-spacing:0px;fill:#ebecf0;fill-opacity:1;stroke:none;stroke-width:1px;stroke-linecap:butt;stroke-linejoin:miter;stroke-opacity:1"
     id="text4141"><path
       d="m 12.891685,9.6161233 c 0,-3.1401368 -1.841439,-5.0978764 -4.380685,-5.0978764 -2.5392465,0 -4.3806847,1.9577396 -4.3806847,5.0978764 0,3.1401367 1.8414382,5.0978767 4.3806847,5.0978767 2.539246,0 4.380685,-1.95774 4.380685,-5.0978767 z m -1.163014,0 c 0,2.5780137 -1.415,3.9736297 -3.217671,3.9736297 -1.8026712,0 -3.2176711,-1.395616 -3.2176711,-3.9736297 0,-2.5780136 1.4149999,-3.9736299 3.2176711,-3.9736299 1.802671,0 3.217671,1.3956163 3.217671,3.9736299 z"
       style="font-style:normal;font-variant:normal;font-weight:normal;font-stretch:normal;font-size:13.64602661px;font-family:Inter;-inkscape-font-specification:Inter;fill:#ebecf0;fill-opacity:1"
       id="path4139" /></g><path
     style="opacity:1;fill:#ebecf0;fill-opacity:1;stroke:none;stroke-width:0.60000002;stroke-linecap:round;stroke-linejoin:round;stroke-miterlimit:4;stroke-dasharray:none;stroke-opacity:1"
     d="m 8.5110002,2.365 c 2.1408338,0 3.8643198,0.00132 3.8643198,0.00295 l 0,1.0040934 c 0,0.00164 -1.723486,0.00295 -3.8643198,0.00295 -2.1408335,0 -3.8643203,-0.00132 -3.8643203,-0.00295 l 0,-1.0040934 c 0,-0.00164 1.7234868,-0.00295 3.8643203,-0.00295 z"
     id="rect4135" /></svg>