<?xml version="1.0" encoding="utf-8"?>
<!-- Generator: Adobe Illustrator 16.2.0, SVG Export Plug-In . SVG Version: 6.00 Build 0)  -->
<!DOCTYPE svg PUBLIC "-//W3C//DTD SVG 1.1//EN" "http://www.w3.org/Graphics/SVG/1.1/DTD/svg11.dtd">
<svg version="1.1" id="Laag_2" xmlns="http://www.w3.org/2000/svg" xmlns:xlink="http://www.w3.org/1999/xlink" x="0px" y="0px"
	 width="16px" height="16px" viewBox="0.511 0.495 16 16" enable-background="new 0.511 0.495 16 16" xml:space="preserve">
<path fill="#65B344" d="M1.511,2.495"/>
<g>
	<path fill="#6E6E6E" d="M15.52,9.47h-2.5C13.09,9.58,13.15,9.69,13.2,9.8c0.16,0.37,0.25,0.8,0.25,1.3c0,0.57-0.11,1.07-0.32,1.511
		c-0.21,0.449-0.5,0.819-0.87,1.13c-0.37,0.3-0.81,0.529-1.33,0.689c-0.52,0.16-1.1,0.24-1.72,0.24c-0.92,0-1.79-0.16-2.63-0.47
		c-0.84-0.311-1.62-0.79-2.33-1.431l1.26-1.5c0.57,0.5,1.16,0.881,1.75,1.15c0.59,0.26,1.25,0.4,2,0.4c0.65,0,1.16-0.141,1.54-0.41
		c0.38-0.271,0.57-0.641,0.57-1.11c0-0.21-0.04-0.399-0.11-0.569c-0.069-0.171-0.21-0.33-0.41-0.471
		C10.65,10.12,10.38,9.98,10.03,9.86C9.69,9.73,9.23,9.6,8.68,9.47H1.51V7.52h3.57C5.04,7.45,5,7.38,4.97,7.31
		C4.79,6.92,4.71,6.45,4.71,5.9c0-0.52,0.1-1,0.3-1.42c0.2-0.43,0.48-0.79,0.83-1.1c0.36-0.3,0.78-0.54,1.28-0.7
		c0.5-0.17,1.04-0.25,1.63-0.25c0.87,0,1.66,0.13,2.36,0.38c0.689,0.26,1.35,0.63,1.96,1.12l-1.12,1.58
		c-0.55-0.4-1.08-0.7-1.62-0.91C9.8,4.39,9.26,4.28,8.72,4.28c-0.61,0-1.09,0.14-1.43,0.42C6.95,4.98,6.78,5.31,6.78,5.71
		c0,0.24,0.04,0.44,0.12,0.61C6.98,6.49,7.12,6.65,7.33,6.8c0.21,0.15,0.5,0.28,0.87,0.41c0.3,0.1,0.649,0.2,1.08,0.31h6.239V9.47z"
		/>
</g>
</svg>
