<?xml version="1.0" encoding="utf-8"?>
<!-- Generator: Adobe Illustrator 16.2.0, SVG Export Plug-In . SVG Version: 6.00 Build 0)  -->
<!DOCTYPE svg PUBLIC "-//W3C//DTD SVG 1.1//EN" "http://www.w3.org/Graphics/SVG/1.1/DTD/svg11.dtd">
<svg version="1.1" id="Laag_2" xmlns="http://www.w3.org/2000/svg" xmlns:xlink="http://www.w3.org/1999/xlink" x="0px" y="0px"
	 width="16px" height="16px" viewBox="0.511 0.495 16 16" enable-background="new 0.511 0.495 16 16" xml:space="preserve">
<path fill="#65B344" d="M1.511,2.495"/>
<g>
	<path fill="#AFB1B3" d="M3.08,6.646c0.065,0.14,0.186,0.271,0.358,0.393c0.173,0.12,0.411,0.232,0.716,0.336
		c0.305,0.103,0.689,0.209,1.158,0.321c0.514,0.13,0.971,0.274,1.367,0.433c0.397,0.158,0.728,0.354,0.99,0.582
		C7.932,8.94,8.131,9.205,8.268,9.51c0.135,0.304,0.203,0.66,0.203,1.07c0,0.467-0.086,0.883-0.258,1.246
		c-0.17,0.363-0.408,0.672-0.716,0.924c-0.305,0.252-0.672,0.443-1.101,0.574c-0.43,0.131-0.899,0.195-1.413,0.195
		c-0.757,0-1.479-0.128-2.17-0.385c-0.691-0.256-1.33-0.65-1.918-1.185l1.036-1.231c0.476,0.412,0.957,0.727,1.442,0.945
		c0.485,0.221,1.036,0.33,1.652,0.33c0.531,0,0.954-0.113,1.268-0.337c0.313-0.225,0.469-0.526,0.469-0.909
		c0-0.179-0.03-0.336-0.092-0.478c-0.061-0.14-0.173-0.269-0.336-0.386C6.17,9.771,5.946,9.66,5.66,9.559
		C5.375,9.455,5.004,9.348,4.545,9.236C4.021,9.115,3.555,8.979,3.148,8.83c-0.407-0.15-0.749-0.336-1.025-0.56
		C1.847,8.045,1.636,7.775,1.491,7.459C1.346,7.142,1.274,6.753,1.274,6.295c0-0.429,0.083-0.819,0.25-1.169s0.396-0.65,0.687-0.902
		c0.292-0.253,0.642-0.446,1.052-0.581C3.674,3.508,4.12,3.44,4.606,3.44c0.718,0,1.364,0.105,1.938,0.315
		c0.574,0.209,1.112,0.515,1.616,0.916L7.238,5.975C6.79,5.647,6.346,5.397,5.908,5.226c-0.439-0.173-0.882-0.259-1.33-0.259
		c-0.504,0-0.896,0.114-1.176,0.343c-0.28,0.229-0.42,0.506-0.42,0.833C2.982,6.337,3.014,6.505,3.08,6.646z"/>
	<path fill="#AFB1B3" d="M14.883,13.164c-0.469,0.256-1.061,0.385-1.779,0.385c-0.551,0-1.059-0.102-1.525-0.301
		c-0.467-0.201-0.873-0.477-1.217-0.826c-0.344-0.351-0.609-0.756-0.805-1.219c-0.191-0.463-0.289-0.959-0.289-1.49
		c0-0.533,0.098-1.031,0.289-1.498c0.193-0.467,0.461-0.877,0.805-1.232c0.344-0.354,0.752-0.635,1.225-0.84
		c0.471-0.206,0.98-0.308,1.531-0.308c0.701,0,1.281,0.117,1.744,0.35c0.461,0.233,0.865,0.541,1.211,0.924l-1.051,1.133
		c-0.262-0.271-0.539-0.491-0.832-0.665c-0.295-0.172-0.656-0.259-1.086-0.259c-0.309,0-0.592,0.063-0.854,0.188
		c-0.262,0.127-0.484,0.297-0.672,0.512s-0.334,0.464-0.439,0.75c-0.107,0.283-0.162,0.59-0.162,0.916
		c0,0.336,0.055,0.648,0.162,0.938c0.105,0.289,0.258,0.541,0.455,0.756c0.193,0.215,0.428,0.385,0.699,0.512
		c0.27,0.125,0.568,0.189,0.895,0.189c0.402,0,0.754-0.087,1.057-0.261c0.305-0.172,0.592-0.394,0.861-0.664l1.021,1.009
		C15.764,12.572,15.348,12.906,14.883,13.164z"/>
</g>
</svg>
