<?xml version="1.0" encoding="utf-8"?>
<!-- Generator: Adobe Illustrator 16.2.0, SVG Export Plug-In . SVG Version: 6.00 Build 0)  -->
<!DOCTYPE svg PUBLIC "-//W3C//DTD SVG 1.1//EN" "http://www.w3.org/Graphics/SVG/1.1/DTD/svg11.dtd">
<svg version="1.1" id="Laag_2" xmlns="http://www.w3.org/2000/svg" xmlns:xlink="http://www.w3.org/1999/xlink" x="0px" y="0px"
	 width="16px" height="16px" viewBox="0.511 0.495 16 16" enable-background="new 0.511 0.495 16 16" xml:space="preserve">
<path fill="#65B344" d="M1.511,2.495"/>
<g>
	<path fill="#6E6E6E" d="M3.029,6.705c0.065,0.14,0.185,0.271,0.358,0.392C3.56,7.218,3.799,7.33,4.103,7.433
		c0.304,0.103,0.69,0.21,1.158,0.322C5.775,7.885,6.232,8.03,6.629,8.188S7.356,8.541,7.618,8.77
		c0.263,0.229,0.461,0.494,0.598,0.798c0.135,0.304,0.203,0.661,0.203,1.071c0,0.467-0.086,0.882-0.257,1.246
		c-0.171,0.363-0.409,0.672-0.716,0.924c-0.305,0.252-0.672,0.443-1.101,0.574s-0.899,0.195-1.413,0.195
		c-0.756,0-1.479-0.128-2.17-0.385c-0.691-0.256-1.33-0.65-1.918-1.184l1.036-1.231c0.476,0.411,0.957,0.726,1.442,0.945
		c0.485,0.22,1.036,0.329,1.652,0.329c0.532,0,0.954-0.112,1.267-0.336c0.313-0.225,0.469-0.527,0.469-0.91
		c0-0.178-0.03-0.336-0.091-0.477c-0.061-0.14-0.173-0.268-0.337-0.385C6.119,9.829,5.895,9.719,5.609,9.617
		C5.324,9.514,4.952,9.406,4.493,9.295C3.969,9.174,3.504,9.038,3.097,8.889C2.69,8.739,2.348,8.553,2.072,8.329
		C1.796,8.104,1.585,7.834,1.44,7.517S1.223,6.812,1.223,6.354c0-0.429,0.083-0.819,0.25-1.169C1.64,4.835,1.869,4.535,2.16,4.283
		C2.452,4.03,2.802,3.837,3.212,3.702c0.41-0.135,0.857-0.203,1.343-0.203c0.718,0,1.365,0.105,1.939,0.315
		C7.068,4.023,7.606,4.329,8.11,4.73L7.187,6.033c-0.448-0.327-0.892-0.577-1.33-0.749c-0.439-0.173-0.882-0.259-1.33-0.259
		c-0.504,0-0.896,0.114-1.176,0.343c-0.28,0.229-0.42,0.506-0.42,0.833C2.931,6.396,2.963,6.564,3.029,6.705z"/>
	<path fill="#6E6E6E" d="M14.831,13.222c-0.467,0.257-1.06,0.385-1.778,0.385c-0.551,0-1.06-0.101-1.526-0.301
		s-0.872-0.476-1.216-0.826s-0.611-0.756-0.805-1.218c-0.192-0.463-0.289-0.959-0.289-1.491s0.097-1.031,0.289-1.498
		c0.193-0.467,0.461-0.877,0.805-1.232c0.344-0.354,0.751-0.635,1.223-0.84c0.472-0.206,0.982-0.308,1.533-0.308
		c0.7,0,1.281,0.117,1.743,0.35s0.865,0.541,1.211,0.924L14.971,8.3c-0.262-0.271-0.539-0.492-0.833-0.665
		c-0.294-0.172-0.656-0.259-1.085-0.259c-0.309,0-0.593,0.063-0.854,0.189c-0.261,0.126-0.485,0.296-0.672,0.511
		s-0.334,0.464-0.44,0.75c-0.107,0.284-0.161,0.59-0.161,0.916c0,0.336,0.054,0.648,0.161,0.938
		c0.106,0.289,0.259,0.541,0.455,0.756c0.195,0.215,0.429,0.385,0.699,0.511s0.569,0.189,0.896,0.189
		c0.401,0,0.754-0.086,1.057-0.26c0.304-0.172,0.591-0.394,0.861-0.664l1.021,1.008C15.713,12.631,15.297,12.965,14.831,13.222z"/>
</g>
</svg>
