<?xml version="1.0" encoding="utf-8"?>
<!-- Generator: Adobe Illustrator 16.2.0, SVG Export Plug-In . SVG Version: 6.00 Build 0)  -->
<!DOCTYPE svg PUBLIC "-//W3C//DTD SVG 1.1//EN" "http://www.w3.org/Graphics/SVG/1.1/DTD/svg11.dtd">
<svg version="1.1" id="Laag_2" xmlns="http://www.w3.org/2000/svg" xmlns:xlink="http://www.w3.org/1999/xlink" x="0px" y="0px"
	 width="16px" height="16px" viewBox="0.511 0.495 16 16" enable-background="new 0.511 0.495 16 16" xml:space="preserve">
<path fill="#65B344" d="M1.511,2.495"/>
<g>
	<path fill="#AFB1B3" d="M13.626,12.12c-0.27,0.66-0.65,1.237-1.141,1.732s-1.07,0.888-1.74,1.178s-1.41,0.435-2.219,0.435
		c-0.811,0-1.551-0.143-2.221-0.428c-0.67-0.285-1.245-0.672-1.725-1.162s-0.855-1.064-1.125-1.725s-0.405-1.359-0.405-2.1
		S3.186,8.61,3.456,7.95s0.65-1.237,1.14-1.732c0.49-0.495,1.07-0.888,1.739-1.178c0.67-0.29,1.41-0.435,2.221-0.435
		s1.549,0.143,2.221,0.428c0.67,0.285,1.244,0.672,1.725,1.163c0.48,0.49,0.855,1.065,1.125,1.725c0.27,0.66,0.404,1.36,0.404,2.1
		C14.03,10.76,13.896,11.46,13.626,12.12z M11.833,8.603c-0.176-0.455-0.42-0.853-0.734-1.192C10.782,7.07,10.405,6.8,9.966,6.6
		c-0.441-0.2-0.92-0.3-1.439-0.3c-0.521,0-0.998,0.097-1.434,0.292c-0.436,0.195-0.807,0.46-1.117,0.795
		c-0.31,0.335-0.553,0.73-0.728,1.185C5.073,9.027,4.985,9.51,4.985,10.02c0,0.511,0.087,0.993,0.263,1.448
		c0.175,0.455,0.42,0.853,0.735,1.192C6.298,13,6.675,13.27,7.116,13.471c0.439,0.199,0.92,0.299,1.439,0.299
		s0.998-0.097,1.432-0.292c0.436-0.194,0.809-0.46,1.119-0.795c0.309-0.335,0.551-0.729,0.727-1.185s0.262-0.938,0.262-1.447
		C12.095,9.54,12.009,9.058,11.833,8.603z"/>
</g>
<rect x="2.5" y="1.5" fill="#AFB1B3" width="12" height="2"/>
</svg>
