<?xml version="1.0" encoding="utf-8"?>
<!-- Generator: Adobe Illustrator 16.2.0, SVG Export Plug-In . SVG Version: 6.00 Build 0)  -->
<!DOCTYPE svg PUBLIC "-//W3C//DTD SVG 1.1//EN" "http://www.w3.org/Graphics/SVG/1.1/DTD/svg11.dtd">
<svg version="1.1" id="Laag_2" xmlns="http://www.w3.org/2000/svg" xmlns:xlink="http://www.w3.org/1999/xlink" x="0px" y="0px"
	 width="16px" height="16px" viewBox="0.511 0.495 16 16" enable-background="new 0.511 0.495 16 16" xml:space="preserve">
<path fill="#65B344" d="M1.511,2.495"/>
<g>
	<path fill="#6E6E6E" d="M12.898,7.705c0,0.78-0.107,1.465-0.322,2.055s-0.518,1.083-0.906,1.478
		c-0.391,0.396-0.863,0.69-1.418,0.886c-0.555,0.194-1.178,0.292-1.867,0.292c-0.682,0-1.297-0.098-1.846-0.292
		c-0.55-0.195-1.02-0.488-1.41-0.878s-0.69-0.872-0.9-1.448c-0.21-0.574-0.315-1.242-0.315-2.002V1.75h1.83v5.97
		c0,0.98,0.236,1.725,0.709,2.235s1.127,0.766,1.961,0.766c0.824,0,1.473-0.246,1.945-0.736c0.473-0.489,0.709-1.219,0.709-2.189
		V1.75h1.83V7.705z"/>
</g>
<rect x="3.5" y="13.5" fill="#6E6E6E" width="10" height="2"/>
</svg>
