<?xml version="1.0" encoding="UTF-8" standalone="no"?>
<!-- Generator: Adobe Illustrator 16.2.0, SVG Export Plug-In . SVG Version: 6.00 Build 0)  -->

<svg
   xmlns:dc="http://purl.org/dc/elements/1.1/"
   xmlns:cc="http://creativecommons.org/ns#"
   xmlns:rdf="http://www.w3.org/1999/02/22-rdf-syntax-ns#"
   xmlns:svg="http://www.w3.org/2000/svg"
   xmlns="http://www.w3.org/2000/svg"
   xmlns:sodipodi="http://sodipodi.sourceforge.net/DTD/sodipodi-0.dtd"
   xmlns:inkscape="http://www.inkscape.org/namespaces/inkscape"
   version="1.1"
   id="Laag_2"
   x="0px"
   y="0px"
   width="16px"
   height="16px"
   viewBox="0.511 0.495 16 16"
   enable-background="new 0.511 0.495 16 16"
   xml:space="preserve"
   inkscape:version="0.91 r13725"
   sodipodi:docname="font-slanted.svg"><metadata
     id="metadata13"><rdf:RDF><cc:Work
         rdf:about=""><dc:format>image/svg+xml</dc:format><dc:type
           rdf:resource="http://purl.org/dc/dcmitype/StillImage" /></cc:Work></rdf:RDF></metadata><defs
     id="defs11" /><sodipodi:namedview
     pagecolor="#ffffff"
     bordercolor="#666666"
     borderopacity="1"
     objecttolerance="10"
     gridtolerance="10"
     guidetolerance="10"
     inkscape:pageopacity="0"
     inkscape:pageshadow="2"
     inkscape:window-width="1316"
     inkscape:window-height="919"
     id="namedview9"
     showgrid="false"
     inkscape:zoom="14.75"
     inkscape:cx="-10.319899"
     inkscape:cy="3.8087009"
     inkscape:window-x="3173"
     inkscape:window-y="275"
     inkscape:window-maximized="0"
     inkscape:current-layer="Laag_2" /><path
     fill="#65B344"
     d="M1.511,2.495"
     id="path3" /><g
     style="font-style:normal;font-weight:normal;font-size:26.86737633px;line-height:125%;font-family:sans-serif;letter-spacing:0px;word-spacing:0px;fill:#6c707e;fill-opacity:1;stroke:none;stroke-width:1px;stroke-linecap:butt;stroke-linejoin:miter;stroke-opacity:1"
     id="text4141"><path
       d="m 9.2758429,6.1097567 1.1449161,0 C 10.592497,4.5641192 9.4475804,3.4573665 7.558468,3.4573665 c -1.8700305,0 -3.5110776,1.0876708 -3.7973068,2.7287179 -0.2099013,1.3166541 0.6106222,2.0990138 2.0608499,2.5378985 l 1.1449166,0.343475 c 0.9922611,0.2862291 1.8509485,0.6487861 1.679211,1.6219651 -0.1717374,1.068589 -1.316654,1.774621 -2.671472,1.774621 -1.1639986,0 -2.1180957,-0.515213 -2.022686,-1.621965 l -1.2212444,0 c -0.1526556,1.602883 0.9731791,2.690554 3.0721929,2.690554 2.2516693,0 3.7209789,-1.240327 3.9881262,-2.824128 C 10.096366,8.8766385 8.4553193,8.2850982 7.5012221,8.017951 L 6.547125,7.7508038 C 5.860175,7.5599844 4.7534223,7.1783455 4.9251598,6.1288386 5.0778153,5.1938234 6.0509944,4.5068734 7.3485666,4.5068734 c 1.1830805,0 1.9272763,0.5533764 1.9272763,1.6028833 z"
       style="font-style:italic;font-variant:normal;font-weight:normal;font-stretch:normal;font-size:13.43368816px;font-family:Inter;-inkscape-font-specification:'Inter Italic';fill:#6c707e;fill-opacity:1"
       id="path4136" /><path
       d="m 13.905599,3.5909401 -1.125834,0 -1.621966,9.7699549 1.125835,0 1.621965,-9.7699549 z"
       style="font-style:italic;font-variant:normal;font-weight:normal;font-stretch:normal;font-size:13.43368816px;font-family:Inter;-inkscape-font-specification:'Inter Italic';fill:#6c707e;fill-opacity:1"
       id="path4138" /></g></svg>