<?xml version="1.0" encoding="UTF-8" standalone="no"?>
<!-- Generator: Adobe Illustrator 16.2.0, SVG Export Plug-In . SVG Version: 6.00 Build 0)  -->

<svg
   xmlns:dc="http://purl.org/dc/elements/1.1/"
   xmlns:cc="http://creativecommons.org/ns#"
   xmlns:rdf="http://www.w3.org/1999/02/22-rdf-syntax-ns#"
   xmlns:svg="http://www.w3.org/2000/svg"
   xmlns="http://www.w3.org/2000/svg"
   xmlns:sodipodi="http://sodipodi.sourceforge.net/DTD/sodipodi-0.dtd"
   xmlns:inkscape="http://www.inkscape.org/namespaces/inkscape"
   version="1.1"
   id="Laag_2"
   x="0px"
   y="0px"
   width="16px"
   height="16px"
   viewBox="0.511 0.495 16 16"
   enable-background="new 0.511 0.495 16 16"
   xml:space="preserve"
   inkscape:version="0.91 r13725"
   sodipodi:docname="font-smallcaps_dark.svg"><metadata
     id="metadata13"><rdf:RDF><cc:Work
         rdf:about=""><dc:format>image/svg+xml</dc:format><dc:type
           rdf:resource="http://purl.org/dc/dcmitype/StillImage" /></cc:Work></rdf:RDF></metadata><defs
     id="defs11" /><sodipodi:namedview
     pagecolor="#ffffff"
     bordercolor="#666666"
     borderopacity="1"
     objecttolerance="10"
     gridtolerance="10"
     guidetolerance="10"
     inkscape:pageopacity="0"
     inkscape:pageshadow="2"
     inkscape:window-width="1316"
     inkscape:window-height="919"
     id="namedview9"
     showgrid="false"
     inkscape:zoom="20.85965"
     inkscape:cx="-0.31118451"
     inkscape:cy="2.1746512"
     inkscape:window-x="2956"
     inkscape:window-y="187"
     inkscape:window-maximized="0"
     inkscape:current-layer="Laag_2" /><path
     fill="#65B344"
     d="M1.511,2.495"
     id="path3" /><g
     style="font-style:normal;font-weight:normal;font-size:20.27757263px;line-height:125%;font-family:sans-serif;letter-spacing:0px;word-spacing:0px;fill:#ebecf0;fill-opacity:1;stroke:none;stroke-width:1px;stroke-linecap:butt;stroke-linejoin:miter;stroke-opacity:1"
     id="text4141"><path
       d="m 6.4974644,6.6371828 0.8641011,0 C 7.3219609,5.5246527 6.2958408,4.6929554 4.870074,4.6929554 c -1.4113651,0 -2.5202949,0.820896 -2.5202949,2.0594409 0,0.9937163 0.7200843,1.5841854 1.8722191,1.9154241 l 0.9073061,0.2592304 c 0.777691,0.2160253 1.4689719,0.4896573 1.4689719,1.2241432 0,0.806494 -0.777691,1.339357 -1.8002106,1.339357 -0.8785028,0 -1.6561938,-0.388846 -1.7282022,-1.224144 l -0.9217079,0 c 0.08641,1.209742 1.0657247,2.030638 2.6499101,2.030638 1.6993988,0 2.6643117,-0.936109 2.6643117,-2.131449 0,-1.3825621 -1.3105533,-1.8290143 -2.0738426,-2.0306379 L 4.6396471,7.9333345 C 4.092383,7.7893177 3.2138802,7.5012839 3.2138802,6.7091913 c 0,-0.7056826 0.6480759,-1.2241433 1.6273904,-1.2241433 0.8929045,0 1.5697837,0.4248497 1.6561938,1.1521348 z"
       style="font-style:normal;font-variant:normal;font-weight:normal;font-stretch:normal;font-size:10.13878632px;font-family:Inter;-inkscape-font-specification:Inter;fill:#ebecf0;fill-opacity:1"
       id="path4136" /><path
       d="m 14.873844,7.0980368 c -0.273632,-1.512177 -1.483373,-2.4050814 -2.966747,-2.4050814 -1.88662,0 -3.2547806,1.4545701 -3.2547806,3.7876431 0,2.3330735 1.3681606,3.7876435 3.2547806,3.7876435 1.483374,0 2.693115,-0.892905 2.966747,-2.4050817 l -0.892904,0 c -0.216025,1.0225197 -1.094528,1.5697837 -2.073843,1.5697837 -1.339356,0 -2.3906795,-1.036921 -2.3906795,-2.9523455 0,-1.9154241 1.0513235,-2.9523454 2.3906795,-2.9523454 0.979315,0 1.857818,0.547264 2.073843,1.5697837 l 0.892904,0 z"
       style="font-style:normal;font-variant:normal;font-weight:normal;font-stretch:normal;font-size:10.13878632px;font-family:Inter;-inkscape-font-specification:Inter;fill:#ebecf0;fill-opacity:1"
       id="path4138" /></g></svg>