<?xml version="1.0" encoding="UTF-8" standalone="no"?>
<!-- Copyright 2000-2023 JetBrains s.r.o. and contributors. Use of this source code is governed by the Apache 2.0 license. -->

<svg
   xmlns:dc="http://purl.org/dc/elements/1.1/"
   xmlns:cc="http://creativecommons.org/ns#"
   xmlns:rdf="http://www.w3.org/1999/02/22-rdf-syntax-ns#"
   xmlns:svg="http://www.w3.org/2000/svg"
   xmlns="http://www.w3.org/2000/svg"
   xmlns:sodipodi="http://sodipodi.sourceforge.net/DTD/sodipodi-0.dtd"
   xmlns:inkscape="http://www.inkscape.org/namespaces/inkscape"
   width="16"
   height="16"
   viewBox="0 0 16 16"
   fill="none"
   id="svg2"
   version="1.1"
   inkscape:version="0.91 r13725"
   sodipodi:docname="latex-file-alt_dark.svg">
  <metadata
     id="metadata18">
    <rdf:RDF>
      <cc:Work
         rdf:about="">
        <dc:format>image/svg+xml</dc:format>
        <dc:type
           rdf:resource="http://purl.org/dc/dcmitype/StillImage" />
      </cc:Work>
    </rdf:RDF>
  </metadata>
  <defs
     id="defs16" />
  <sodipodi:namedview
     pagecolor="#ffffff"
     bordercolor="#666666"
     borderopacity="1"
     objecttolerance="10"
     gridtolerance="10"
     guidetolerance="10"
     inkscape:pageopacity="0"
     inkscape:pageshadow="2"
     inkscape:window-width="1278"
     inkscape:window-height="1368"
     id="namedview14"
     showgrid="false"
     showguides="true"
     inkscape:guide-bbox="true"
     inkscape:zoom="32"
     inkscape:cx="7.0966128"
     inkscape:cy="8.4605303"
     inkscape:window-x="2553"
     inkscape:window-y="0"
     inkscape:window-maximized="0"
     inkscape:current-layer="g4154">
    <sodipodi:guide
       position="1.9960938,10.109375"
       orientation="1,0"
       id="guide4177" />
    <sodipodi:guide
       position="3.4453125,9"
       orientation="0,1"
       id="guide4179" />
    <sodipodi:guide
       position="7.2578125,9.2460938"
       orientation="1,0"
       id="guide4181" />
    <sodipodi:guide
       position="3.4492188,12"
       orientation="0,1"
       id="guide4183" />
  </sodipodi:namedview>
  <path
     d="M2.5 12C2.22386 12 2 12.2239 2 12.5C2 12.7761 2.22386 13 2.5 13H9.5C9.77614 13 10 12.7761 10 12.5C10 12.2239 9.77614 12 9.5 12H2.5Z"
     fill="#6C707E"
     id="path8"
     style="fill:#ebecf0;fill-opacity:1" />
  <path
     d="M2.5 9C2.22386 9 2 9.22386 2 9.5C2 9.77614 2.22386 10 2.5 10H13.5C13.7761 10 14 9.77614 14 9.5C14 9.22386 13.7761 9 13.5 9H2.5Z"
     fill="#6C707E"
     id="path10"
     style="fill:#ebecf0;fill-opacity:1" />
  <g
     style="fill:none"
     id="g4154"
     transform="matrix(0.68229167,0,0,0.68229167,6.4479167,-1.3645833)">
    <rect
       style="fill:#25324d;fill-opacity:1;stroke:#548af7;stroke-opacity:1"
       id="rect4"
       rx="1.5"
       height="11"
       width="11"
       y="2.5"
       x="2.5" />
    <text
       sodipodi:linespacing="125%"
       id="text4140"
       y="4.2203388"
       x="7.6101694"
       style="font-style:normal;font-weight:normal;font-size:40px;line-height:125%;font-family:sans-serif;letter-spacing:0px;word-spacing:0px;fill:#000000;fill-opacity:1;stroke:none;stroke-width:1px;stroke-linecap:butt;stroke-linejoin:miter;stroke-opacity:1"
       xml:space="preserve"><tspan
         y="4.2203388"
         x="7.6101694"
         id="tspan4142"
         sodipodi:role="line" /></text>
    <g
       style="font-style:normal;font-weight:normal;font-size:8.44722366px;line-height:125%;font-family:sans-serif;letter-spacing:0px;word-spacing:0px;fill:#548af7;fill-opacity:1;stroke:none;stroke-width:1px;stroke-linecap:butt;stroke-linejoin:miter;stroke-opacity:1"
       id="text4200">
      <path
         d="m 12.171823,5.2542961 -1.563232,5.9147069 -1.4766139,0 L 8.1503173,7.3743513 Q 8.0719495,7.0773786 8.055451,6.7102873 l -0.016498,0 Q 8.001831,7.1145002 7.9317124,7.3743513 l -1.0064075,3.7946517 -1.5384836,0 -1.5549821,-5.9147069 1.4559912,0 0.8331734,3.939013 q 0.05362,0.2516019 0.078368,0.6764378 l 0.024748,0 q 0.016498,-0.3175958 0.119614,-0.6929363 l 1.0724015,-3.9225145 1.4271188,0 0.9692859,3.97201 q 0.05362,0.2186049 0.094866,0.6351916 l 0.016499,0 q 0.016498,-0.3258451 0.086617,-0.6599394 l 0.816675,-3.9472622 1.344627,0 z"
         style="font-style:normal;font-variant:normal;font-weight:bold;font-stretch:normal;font-family:'Segoe UI';-inkscape-font-specification:'Segoe UI Bold';fill:#548af7;fill-opacity:1"
         id="path4147" />
    </g>
  </g>
  <path
     inkscape:connector-curvature="0"
     style="fill:#ebecf0;fill-opacity:1"
     d="M 2.3251954,6.0146484 C 2.1434391,6.0151878 1.9960938,6.239525 1.9960938,6.515625 c 0,0.2761 0.1473453,0.4995628 0.3291016,0.4990234 L 6.9326171,7.0009764 C 7.1143734,7.0004372 7.2617185,6.7761 7.2617185,6.5 c 0,-0.2761 -0.1473451,-0.4995628 -0.3291014,-0.4990234 l -4.6074217,0.013672 z"
     id="path8-5" />
  <path
     inkscape:connector-curvature="0"
     style="fill:#ebecf0;fill-opacity:1"
     d="m 2.3291017,2.9990233 c -0.1817563,5.394e-4 -0.3291016,0.2248766 -0.3291016,0.5009766 0,0.2761 0.1473453,0.4995629 0.3291016,0.4990235 l 4.6074217,-0.013672 c 0.1817563,-5.393e-4 0.3291014,-0.2248765 0.3291014,-0.5009765 0,-0.2761 -0.1473451,-0.4995628 -0.3291014,-0.4990234 l -4.6074217,0.013672 z"
     id="path8-5-7" />
</svg>
