<?xml version="1.0" encoding="UTF-8" standalone="no"?>
<!-- Generator: Adobe Illustrator 16.2.0, SVG Export Plug-In . SVG Version: 6.00 Build 0)  -->

<svg
   xmlns:dc="http://purl.org/dc/elements/1.1/"
   xmlns:cc="http://creativecommons.org/ns#"
   xmlns:rdf="http://www.w3.org/1999/02/22-rdf-syntax-ns#"
   xmlns:svg="http://www.w3.org/2000/svg"
   xmlns="http://www.w3.org/2000/svg"
   xmlns:sodipodi="http://sodipodi.sourceforge.net/DTD/sodipodi-0.dtd"
   xmlns:inkscape="http://www.inkscape.org/namespaces/inkscape"
   version="1.1"
   id="Laag_3"
   x="0px"
   y="0px"
   width="16px"
   height="16px"
   viewBox="0.511 0.495 16 16"
   enable-background="new 0.511 0.495 16 16"
   xml:space="preserve"
   inkscape:version="0.91 r13725"
   sodipodi:docname="sumatra_dark.svg"><metadata
     id="metadata17"><rdf:RDF><cc:Work
         rdf:about=""><dc:format>image/svg+xml</dc:format><dc:type
           rdf:resource="http://purl.org/dc/dcmitype/StillImage" /></cc:Work></rdf:RDF></metadata><defs
     id="defs15" /><sodipodi:namedview
     pagecolor="#ffffff"
     bordercolor="#666666"
     borderopacity="1"
     objecttolerance="10"
     gridtolerance="10"
     guidetolerance="10"
     inkscape:pageopacity="0"
     inkscape:pageshadow="2"
     inkscape:window-width="1160"
     inkscape:window-height="936"
     id="namedview13"
     showgrid="false"
     inkscape:zoom="14.75"
     inkscape:cx="8"
     inkscape:cy="8"
     inkscape:window-x="2848"
     inkscape:window-y="156"
     inkscape:window-maximized="0"
     inkscape:current-layer="g7" /><rect
     x="2.506"
     y="4.464"
     fill="#E0D355"
     width="13"
     height="9.021"
     id="rect3"
     style="fill:#f2c55c;fill-opacity:1" /><path
     fill="#AFB1B3"
     d="M15.51,3.51v0.95h-11c-1.11,0-2,0.9-2,2v7.021H1.52V6.46c0.02-1.63,1.35-2.96,3-2.96  c0.05,0,0.11,0,0.16,0.01H15.51z"
     id="path5"
     style="fill:#ebecf0;fill-opacity:1" /><g
     opacity="0.7"
     id="g7"><path
       fill="#231F20"
       d="M6.255,11.367c-0.742,0-1.492-0.26-2.08-0.784l0.638-0.764c0.441,0.364,0.903,0.596,1.464,0.596   c0.441,0,0.707-0.175,0.707-0.462V9.938c0-0.272-0.168-0.413-0.987-0.623C5.008,9.063,4.371,8.79,4.371,7.816V7.802   c0-0.889,0.714-1.478,1.716-1.478c0.715,0,1.324,0.224,1.821,0.624L7.348,7.76C6.913,7.459,6.486,7.277,6.073,7.277   c-0.414,0-0.63,0.189-0.63,0.427v0.014c0,0.322,0.21,0.427,1.057,0.645c0.995,0.259,1.555,0.616,1.555,1.471v0.014   C8.055,10.82,7.313,11.367,6.255,11.367z"
       id="path9"
       style="fill:#3d3223;fill-opacity:1" /><path
       fill="#231F20"
       d="M11.457,11.375c-1.317,0-2.122-0.736-2.122-2.179V6.395h1.078v2.773c0,0.799,0.399,1.212,1.058,1.212   s1.058-0.399,1.058-1.177V6.395h1.078v2.767C13.606,10.646,12.773,11.375,11.457,11.375z"
       id="path11"
       style="fill:#3d3223;fill-opacity:1" /></g></svg>