<?xml version="1.0" encoding="utf-8"?>
<!-- Generator: Adobe Illustrator 16.2.0, SVG Export Plug-In . SVG Version: 6.00 Build 0)  -->
<!DOCTYPE svg PUBLIC "-//W3C//DTD SVG 1.1//EN" "http://www.w3.org/Graphics/SVG/1.1/DTD/svg11.dtd">
<svg version="1.1" id="Laag_1" xmlns="http://www.w3.org/2000/svg" xmlns:xlink="http://www.w3.org/1999/xlink" x="0px" y="0px"
	 width="13px" height="13px" viewBox="0 0 13 13" enable-background="new 0 0 13 13" xml:space="preserve">
<g>
	<path fill="#6F6E6E" d="M12.027,12H7.563v-1.489c1.648-1.178,2.474-2.642,2.474-4.392c0-1.088-0.325-1.949-0.977-2.583
		c-0.65-0.634-1.49-0.951-2.518-0.951c-1.039,0-1.889,0.318-2.55,0.955S3,5.046,3,6.149c0,1.735,0.822,3.189,2.465,4.362V12H1
		v-1.489h2.763C1.926,9.388,1.008,7.866,1.008,5.946c0-1.524,0.504-2.724,1.51-3.598C3.524,1.473,4.85,1.035,6.494,1.035
		c1.682,0,3.024,0.434,4.027,1.301c1.005,0.867,1.507,2.065,1.507,3.595c0,1.92-0.929,3.447-2.787,4.58h2.787V12z"/>
</g>
</svg>
