<?xml version="1.0" encoding="UTF-8" standalone="no"?>
<!-- Copyright 2000-2022 JetBrains s.r.o. and contributors. Use of this source code is governed by the Apache 2.0 license. -->

<svg
   xmlns:dc="http://purl.org/dc/elements/1.1/"
   xmlns:cc="http://creativecommons.org/ns#"
   xmlns:rdf="http://www.w3.org/1999/02/22-rdf-syntax-ns#"
   xmlns:svg="http://www.w3.org/2000/svg"
   xmlns="http://www.w3.org/2000/svg"
   xmlns:sodipodi="http://sodipodi.sourceforge.net/DTD/sodipodi-0.dtd"
   xmlns:inkscape="http://www.inkscape.org/namespaces/inkscape"
   width="16"
   height="16"
   viewBox="0 0 16 16"
   fill="none"
   id="svg2"
   version="1.1"
   inkscape:version="0.91 r13725"
   sodipodi:docname="temp.svg">
  <metadata
     id="metadata16">
    <rdf:RDF>
      <cc:Work
         rdf:about="">
        <dc:format>image/svg+xml</dc:format>
        <dc:type
           rdf:resource="http://purl.org/dc/dcmitype/StillImage" />
      </cc:Work>
    </rdf:RDF>
  </metadata>
  <defs
     id="defs14">
    <inkscape:path-effect
       effect="skeletal"
       id="path-effect4211"
       is_visible="true"
       pattern="M 6.8446971,1.67314e-4 C 6.216337,0.00718181 5.638743,0.24714811 5.2450877,0.83633481 5.018401,1.1756183 4.72129,1.2956461 4.3857127,1.2855535 4.0501354,1.2754609 3.6840239,1.1059326 3.4286815,0.79727221 2.9720019,0.24523391 2.4103233,0.02302051 1.7919627,0.01383911 1.1736021,0.00465781 0.58929887,0.21913611 0.12399387,0.80313161 -0.26793303,1.2953189 0.35986287,1.8058697 0.75178977,1.3136824 1.0996611,0.87707581 1.5134426,0.67509931 1.7782908,0.67903181 2.0431391,0.68296421 2.5145214,0.93657881 2.8587517,1.3526874 3.283168,1.8657258 3.6911482,2.0424938 4.3141747,2.0612316 4.9372013,2.0799693 5.5184376,1.8801692 5.9178054,1.2824324 6.187009,0.87951361 6.5776564,0.66845001 6.8544627,0.66535991 c 0.2768063,-0.00309 0.778915,0.2481688 1.144914,0.68928069 0.493761,0.595093 0.909629,0.7870997 1.52183,0.7573722 0.6122003,-0.029727 1.1980423,-0.2135693 1.6164593,-0.713178 L 11.338838,1.1605535 C 11.742356,0.67879431 11.019839,0.07344211 10.616182,0.55508481 L 10.41501,0.79531911 C 10.113625,1.1551858 9.7992077,1.3228001 9.5204787,1.3363348 9.2417487,1.3498694 8.9322507,1.234703 8.5693067,0.79727221 8.0786007,0.20586031 7.4730571,-0.00684729 6.8446971,1.67314e-4 Z"
       copytype="single_stretched"
       prop_scale="1"
       scale_y_rel="false"
       spacing="0"
       normal_offset="0"
       tang_offset="0"
       prop_units="false"
       vertical_pattern="false"
       fuse_tolerance="0" />
    <inkscape:path-effect
       effect="skeletal"
       id="path-effect4202"
       is_visible="true"
       pattern="M 6.8446971,1.67314e-4 C 6.216337,0.00718181 5.638743,0.24714811 5.2450877,0.83633481 5.018401,1.1756183 4.72129,1.2956461 4.3857127,1.2855535 4.0501354,1.2754609 3.6840239,1.1059326 3.4286815,0.79727221 2.9720019,0.24523391 2.4103233,0.02302051 1.7919627,0.01383911 1.1736021,0.00465781 0.58929887,0.21913611 0.12399387,0.80313161 -0.26793303,1.2953189 0.35986287,1.8058697 0.75178977,1.3136824 1.0996611,0.87707581 1.5134426,0.67509931 1.7782908,0.67903181 2.0431391,0.68296421 2.5145214,0.93657881 2.8587517,1.3526874 3.283168,1.8657258 3.6911482,2.0424938 4.3141747,2.0612316 4.9372013,2.0799693 5.5184376,1.8801692 5.9178054,1.2824324 6.187009,0.87951361 6.5776564,0.66845001 6.8544627,0.66535991 c 0.2768063,-0.00309 0.778915,0.2481688 1.144914,0.68928069 0.493761,0.595093 0.909629,0.7870997 1.52183,0.7573722 0.6122003,-0.029727 1.1980423,-0.2135693 1.6164593,-0.713178 L 11.338838,1.1605535 C 11.742356,0.67879431 11.019839,0.07344211 10.616182,0.55508481 L 10.41501,0.79531911 C 10.113625,1.1551858 9.7992077,1.3228001 9.5204787,1.3363348 9.2417487,1.3498694 8.9322507,1.234703 8.5693067,0.79727221 8.0786007,0.20586031 7.4730571,-0.00684729 6.8446971,1.67314e-4 Z"
       copytype="single_stretched"
       prop_scale="1"
       scale_y_rel="false"
       spacing="0"
       normal_offset="0"
       tang_offset="0"
       prop_units="false"
       vertical_pattern="false"
       fuse_tolerance="0" />
    <inkscape:path-effect
       effect="skeletal"
       id="path-effect4193"
       is_visible="true"
       pattern="M 6.8446971,1.67314e-4 C 6.216337,0.00718181 5.638743,0.24714811 5.2450877,0.83633481 5.018401,1.1756183 4.72129,1.2956461 4.3857127,1.2855535 4.0501354,1.2754609 3.6840239,1.1059326 3.4286815,0.79727221 2.9720019,0.24523391 2.4103233,0.02302051 1.7919627,0.01383911 1.1736021,0.00465781 0.58929887,0.21913611 0.12399387,0.80313161 -0.26793303,1.2953189 0.35986287,1.8058697 0.75178977,1.3136824 1.0996611,0.87707581 1.5134426,0.67509931 1.7782908,0.67903181 2.0431391,0.68296421 2.5145214,0.93657881 2.8587517,1.3526874 3.283168,1.8657258 3.6911482,2.0424938 4.3141747,2.0612316 4.9372013,2.0799693 5.5184376,1.8801692 5.9178054,1.2824324 6.187009,0.87951361 6.5776564,0.66845001 6.8544627,0.66535991 c 0.2768063,-0.00309 0.778915,0.2481688 1.144914,0.68928069 0.493761,0.595093 0.909629,0.7870997 1.52183,0.7573722 0.6122003,-0.029727 1.1980423,-0.2135693 1.6164593,-0.713178 L 11.338838,1.1605535 C 11.742356,0.67879431 11.019839,0.07344211 10.616182,0.55508481 L 10.41501,0.79531911 C 10.113625,1.1551858 9.7992077,1.3228001 9.5204787,1.3363348 9.2417487,1.3498694 8.9322507,1.234703 8.5693067,0.79727221 8.0786007,0.20586031 7.4730571,-0.00684729 6.8446971,1.67314e-4 Z"
       copytype="single_stretched"
       prop_scale="1"
       scale_y_rel="false"
       spacing="0"
       normal_offset="0"
       tang_offset="0"
       prop_units="false"
       vertical_pattern="false"
       fuse_tolerance="0" />
    <inkscape:path-effect
       effect="skeletal"
       id="path-effect4215"
       is_visible="true"
       pattern="m 0.515625,1.53125 1,0"
       copytype="single_stretched"
       prop_scale="1"
       scale_y_rel="false"
       spacing="0"
       normal_offset="0"
       tang_offset="0"
       prop_units="false"
       vertical_pattern="false"
       fuse_tolerance="0" />
    <inkscape:path-effect
       effect="skeletal"
       id="path-effect4197"
       is_visible="true"
       pattern="M 0,0 1,0"
       copytype="single_stretched"
       prop_scale="1"
       scale_y_rel="false"
       spacing="0"
       normal_offset="0"
       tang_offset="0"
       prop_units="false"
       vertical_pattern="false"
       fuse_tolerance="0" />
    <inkscape:path-effect
       effect="skeletal"
       id="path-effect4177"
       is_visible="true"
       pattern="M 0,0 1,0"
       copytype="single_stretched"
       prop_scale="1"
       scale_y_rel="false"
       spacing="0"
       normal_offset="0"
       tang_offset="0"
       prop_units="false"
       vertical_pattern="false"
       fuse_tolerance="0" />
    <inkscape:path-effect
       effect="skeletal"
       id="path-effect4215-2"
       is_visible="true"
       pattern="m 0.4943695,7.5344263 0.9999999,0"
       copytype="single_stretched"
       prop_scale="1"
       scale_y_rel="false"
       spacing="0"
       normal_offset="0"
       tang_offset="0"
       prop_units="false"
       vertical_pattern="false"
       fuse_tolerance="0" />
    <inkscape:path-effect
       effect="skeletal"
       id="path-effect4215-2-5"
       is_visible="true"
       pattern="m 0.50999458,4.5344263 0.99999982,0"
       copytype="single_stretched"
       prop_scale="1"
       scale_y_rel="false"
       spacing="0"
       normal_offset="0"
       tang_offset="0"
       prop_units="false"
       vertical_pattern="false"
       fuse_tolerance="0" />
    <inkscape:path-effect
       effect="skeletal"
       id="path-effect4215-2-5-8"
       is_visible="true"
       pattern="m 0.4928332,10.534426 0.9999999,0"
       copytype="single_stretched"
       prop_scale="1"
       scale_y_rel="false"
       spacing="0"
       normal_offset="0"
       tang_offset="0"
       prop_units="false"
       vertical_pattern="false"
       fuse_tolerance="0" />
  </defs>
  <sodipodi:namedview
     pagecolor="#ffffff"
     bordercolor="#666666"
     borderopacity="1"
     objecttolerance="10"
     gridtolerance="10"
     guidetolerance="10"
     inkscape:pageopacity="0"
     inkscape:pageshadow="2"
     inkscape:window-width="2560"
     inkscape:window-height="1377"
     id="namedview12"
     showgrid="true"
     showguides="true"
     inkscape:guide-bbox="true"
     inkscape:zoom="90.509668"
     inkscape:cx="7.8207556"
     inkscape:cy="6.8506889"
     inkscape:window-x="2552"
     inkscape:window-y="-8"
     inkscape:window-maximized="1"
     inkscape:current-layer="svg2">
    <sodipodi:guide
       position="4.1827164,13.003574"
       orientation="0,1"
       id="guide4144" />
    <sodipodi:guide
       position="2.15625,12.003906"
       orientation="0,1"
       id="guide4146" />
    <sodipodi:guide
       position="3.59375,10.003906"
       orientation="0,1"
       id="guide4148" />
    <sodipodi:guide
       position="3.3242188,9"
       orientation="0,1"
       id="guide4150" />
    <sodipodi:guide
       position="1.9453125,7.0039062"
       orientation="0,1"
       id="guide4152" />
    <sodipodi:guide
       position="2.0195312,6"
       orientation="0,1"
       id="guide4154" />
    <sodipodi:guide
       position="2.1601562,2.9960938"
       orientation="0,1"
       id="guide4158" />
    <sodipodi:guide
       position="1.9960938,3.171875"
       orientation="1,0"
       id="guide4160" />
    <inkscape:grid
       type="xygrid"
       id="grid4184" />
    <sodipodi:guide
       position="14,10.34375"
       orientation="1,0"
       id="guide4222" />
    <sodipodi:guide
       position="10.34375,13.640625"
       orientation="0,1"
       id="guide4224" />
    <sodipodi:guide
       position="4.1763494,15.799417"
       orientation="0,1"
       id="guide4178" />
    <sodipodi:guide
       position="4.3641747,14.197378"
       orientation="0,1"
       id="guide4180" />
  </sodipodi:namedview>
  <path
     style="fill:none;fill-rule:evenodd;stroke:none;stroke-width:0.1;stroke-linecap:round;stroke-linejoin:round;stroke-opacity:1;stroke-miterlimit:4;stroke-dasharray:none"
     d="M 9.0005761,-0.51059243 C 8.3543317,-0.41478302 7.8080597,-0.05223808 7.5489361,0.43575883 7.5210421,0.63806288 7.4860651,0.83542163 7.4412659,1.0922953 7.3704821,1.4981621 7.0234512,1.7287274 6.6084481,1.7354178 6.1801325,1.7423228 5.7719725,1.4838225 5.6484093,1.0914138 5.5672907,0.83380003 5.5101955,0.60987055 5.4716911,0.41231222 5.1881937,-0.05120514 4.6696991,-0.38413072 4.0659595,-0.48707432 3.0777853,-0.65556774 2.1296342,-0.13875304 1.9687156,0.70789618 1.9037966,1.0500075 2.1671759,1.1892582 2.3404542,1.2044663 2.5351513,1.2215542 2.7122092,1.1230072 2.8246793,0.83972486 3.0406621,0.29617463 3.594989,0.09170071 3.9442866,0.15014964 c 0.3639285,0.0608971 0.8604901,0.48989515 0.8666036,1.07648526 10e-8,1.15e-5 8.25e-5,0.00887 8.26e-5,0.00888 0.1139823,0.714655 0.7647207,1.2474737 1.7163861,1.2579046 0.8471739,0.00929 1.5917373,-0.460106 1.7630247,-1.1301724 0,0 0,-1e-7 0,-1e-7 0.00177,-0.097703 0.00419,-0.1943447 0.0069,-0.3037325 0.012692,-0.51358042 0.4340181,-0.87504946 0.8078627,-0.92982442 0.3868235,-0.0566765 1.0177367,0.21890765 1.2055987,0.80106951 0.09315,0.28865421 0.135204,0.54788991 0.161878,0.72631681 0.243839,0.3939944 0.676834,0.6870634 1.234295,0.7967096 0.988118,0.1943519 1.912857,-0.2327609 2.156426,-0.9566424 0.03765,-0.1104096 0.06671,-0.2212787 0.08689,-0.3316933 0.05942,-0.33259812 -0.232914,-0.47772402 -0.421321,-0.50925639 -0.21129,-0.0353621 -0.394106,0.029767 -0.503638,0.29810563 -0.03734,0.0915855 -0.08257,0.18222186 -0.135382,0.27098766 -0.243318,0.4088788 -0.667995,0.5570998 -1.013355,0.4911999 -0.313258,-0.059775 -0.709321,-0.3304661 -0.73139,-0.89731668 0,-4e-8 0,-10e-8 0,-10e-8 6.9e-5,4.4145e-4 -0.0065,-0.0412148 -0.0064,-0.0407734 -0.14326,-0.89155124 -1.131437,-1.43823261 -2.1381169,-1.28898656 z"
     id="path4191"
     inkscape:path-effect="#path-effect4193"
     inkscape:original-d="m 2,1 c 1,-0.799417 2,-0.802622 3,0 1,0.802622 2,0.799417 3,0 1,-0.799417 2,-0.802622 3,0 1,0.802622 2,0.799417 3,0"
     inkscape:connector-curvature="0" />
  <path
     style="color:#000000;font-style:normal;font-variant:normal;font-weight:normal;font-stretch:normal;font-size:medium;line-height:normal;font-family:sans-serif;text-indent:0;text-align:start;text-decoration:none;text-decoration-line:none;text-decoration-style:solid;text-decoration-color:#000000;letter-spacing:normal;word-spacing:normal;text-transform:none;direction:ltr;block-progression:tb;writing-mode:lr-tb;baseline-shift:baseline;text-anchor:start;white-space:normal;clip-rule:nonzero;display:inline;overflow:visible;visibility:visible;opacity:1;isolation:auto;mix-blend-mode:normal;color-interpolation:sRGB;color-interpolation-filters:linearRGB;solid-color:#000000;solid-opacity:1;fill:#6c707e;fill-opacity:1;fill-rule:evenodd;stroke:none;stroke-width:0.58833987;stroke-linecap:round;stroke-linejoin:miter;stroke-miterlimit:4;stroke-dasharray:none;stroke-dashoffset:0;stroke-opacity:1;color-rendering:auto;image-rendering:auto;shape-rendering:auto;text-rendering:auto;enable-background:accumulate"
     d="M 3.7207031,2.6074219 C 3.1613108,2.6078972 2.6144044,2.8484315 2.1015625,3.2832031 A 0.29447046,0.29447046 0 0 0 2.4824219,3.7324219 C 2.9217726,3.3599538 3.3279027,3.1956463 3.7207031,3.1953125 4.1135035,3.1949787 4.5198907,3.3586793 4.9589844,3.7324219 5.4720834,4.1691554 6.0187327,4.4086785 6.578125,4.4082031 7.1375173,4.4077278 7.6824706,4.1671935 8.1953125,3.7324219 8.6346633,3.3599538 9.0407932,3.1956463 9.4335938,3.1953125 c 0.3928005,-3.338e-4 0.7991872,0.1633668 1.2382812,0.5371094 0.513099,0.4367336 1.059748,0.6762566 1.619141,0.6757812 0.559392,-4.753e-4 1.104345,-0.2410096 1.617187,-0.6757812 A 0.29419935,0.29419935 0 1 0 13.529297,3.2832031 C 13.089946,3.6556712 12.683816,3.8199787 12.291016,3.8203125 11.898215,3.8206463 11.491828,3.6569456 11.052734,3.2832031 10.539635,2.8464696 9.9929862,2.6069465 9.4335938,2.6074219 8.8742013,2.6078972 8.3272951,2.8484315 7.8144531,3.2832031 7.3751024,3.6556712 6.9689723,3.8199787 6.5761719,3.8203125 6.1833715,3.8206463 5.7789374,3.6569457 5.3398438,3.2832031 4.8267447,2.8464696 4.2800954,2.6069465 3.7207031,2.6074219 Z"
     id="path4218"
     inkscape:connector-curvature="0" />
  <path
     style="color:#000000;font-style:normal;font-variant:normal;font-weight:normal;font-stretch:normal;font-size:medium;line-height:normal;font-family:sans-serif;text-indent:0;text-align:start;text-decoration:none;text-decoration-line:none;text-decoration-style:solid;text-decoration-color:#000000;letter-spacing:normal;word-spacing:normal;text-transform:none;direction:ltr;block-progression:tb;writing-mode:lr-tb;baseline-shift:baseline;text-anchor:start;white-space:normal;clip-rule:nonzero;display:inline;overflow:visible;visibility:visible;opacity:1;isolation:auto;mix-blend-mode:normal;color-interpolation:sRGB;color-interpolation-filters:linearRGB;solid-color:#000000;solid-opacity:1;fill:#6c707e;fill-opacity:1;fill-rule:evenodd;stroke:none;stroke-width:0.58833987;stroke-linecap:round;stroke-linejoin:miter;stroke-miterlimit:4;stroke-dasharray:none;stroke-dashoffset:0;stroke-opacity:1;color-rendering:auto;image-rendering:auto;shape-rendering:auto;text-rendering:auto;enable-background:accumulate"
     d="M 3.7246094,8.6035156 C 3.1652171,8.603991 2.6202638,8.8445252 2.1074219,9.2792969 A 0.29419935,0.29419935 0 1 0 2.4863281,9.7285156 C 2.9256788,9.3560476 3.331809,9.19174 3.7246094,9.1914062 4.1174098,9.1910725 4.523797,9.35282 4.9628906,9.7265625 5.4759897,10.163296 6.0226389,10.404772 6.5820312,10.404297 7.1414236,10.403821 7.68833,10.163287 8.2011719,9.7285156 8.6405226,9.3560476 9.0466526,9.19174 9.4394531,9.1914062 9.8322536,9.1910725 10.236688,9.35282 10.675781,9.7265625 c 0.513099,0.4367335 1.059748,0.6782095 1.619141,0.6777345 0.559392,-4.76e-4 1.106298,-0.24101 1.61914,-0.6757814 A 0.29447029,0.29447029 0 1 0 13.533203,9.2792969 C 13.093852,9.6517649 12.687723,9.8160724 12.294922,9.8164062 11.902121,9.8167401 11.495734,9.6530395 11.056641,9.2792969 10.543542,8.8425633 9.9968924,8.6030403 9.4375,8.6035156 8.8781076,8.603991 8.3331544,8.8445252 7.8203125,9.2792969 7.3809617,9.6517649 6.9748316,9.8160724 6.5820312,9.8164062 6.1892309,9.8167401 5.7828436,9.6530396 5.34375,9.2792969 4.830651,8.8425633 4.2840017,8.6030403 3.7246094,8.6035156 Z"
     id="path4218-0"
     inkscape:connector-curvature="0" />
  <path
     style="color:#000000;font-style:normal;font-variant:normal;font-weight:normal;font-stretch:normal;font-size:medium;line-height:normal;font-family:sans-serif;text-indent:0;text-align:start;text-decoration:none;text-decoration-line:none;text-decoration-style:solid;text-decoration-color:#000000;letter-spacing:normal;word-spacing:normal;text-transform:none;direction:ltr;block-progression:tb;writing-mode:lr-tb;baseline-shift:baseline;text-anchor:start;white-space:normal;clip-rule:nonzero;display:inline;overflow:visible;visibility:visible;opacity:1;isolation:auto;mix-blend-mode:normal;color-interpolation:sRGB;color-interpolation-filters:linearRGB;solid-color:#000000;solid-opacity:1;fill:#6c707e;fill-opacity:1;fill-rule:evenodd;stroke:none;stroke-width:0.58833987;stroke-linecap:round;stroke-linejoin:miter;stroke-miterlimit:4;stroke-dasharray:none;stroke-dashoffset:0;stroke-opacity:1;color-rendering:auto;image-rendering:auto;shape-rendering:auto;text-rendering:auto;enable-background:accumulate"
     d="m 3.71875,11.625 c -0.5593922,4.75e-4 -1.1043456,0.24101 -1.6171875,0.675781 A 0.29419935,0.29419935 0 1 0 2.4804688,12.75 C 2.9198194,12.377532 3.3279026,12.213224 3.7207031,12.212891 4.1135036,12.212557 4.5179376,12.376258 4.9570312,12.75 5.4701303,13.186734 6.0167795,13.426257 6.5761719,13.425781 7.1355642,13.425306 7.6824706,13.184772 8.1953125,12.75 A 0.29447054,0.29447054 0 1 0 7.8144531,12.300781 C 7.3751023,12.673249 6.9689722,12.837557 6.5761719,12.837891 6.1833715,12.838224 5.7769843,12.674524 5.3378906,12.300781 4.8247916,11.864048 4.2781422,11.624525 3.71875,11.625 Z"
     id="path4218-0-7"
     inkscape:connector-curvature="0" />
  <path
     style="color:#000000;font-style:normal;font-variant:normal;font-weight:normal;font-stretch:normal;font-size:medium;line-height:normal;font-family:sans-serif;text-indent:0;text-align:start;text-decoration:none;text-decoration-line:none;text-decoration-style:solid;text-decoration-color:#000000;letter-spacing:normal;word-spacing:normal;text-transform:none;direction:ltr;block-progression:tb;writing-mode:lr-tb;baseline-shift:baseline;text-anchor:start;white-space:normal;clip-rule:nonzero;display:inline;overflow:visible;visibility:visible;opacity:1;isolation:auto;mix-blend-mode:normal;color-interpolation:sRGB;color-interpolation-filters:linearRGB;solid-color:#000000;solid-opacity:1;fill:#6c707e;fill-opacity:1;fill-rule:evenodd;stroke:none;stroke-width:0.58833987;stroke-linecap:round;stroke-linejoin:miter;stroke-miterlimit:4;stroke-dasharray:none;stroke-dashoffset:0;stroke-opacity:1;color-rendering:auto;image-rendering:auto;shape-rendering:auto;text-rendering:auto;enable-background:accumulate"
     d="M 3.7246094,5.609375 C 3.1652171,5.6098503 2.6183107,5.850385 2.1054688,6.2851562 A 0.29447043,0.29447043 0 0 0 2.4863281,6.734375 C 2.9256788,6.3619073 3.3318089,6.1975994 3.7246094,6.1972656 4.1174099,6.1969319 4.523797,6.3586798 4.9628906,6.7324219 5.4759897,7.1691559 6.0226389,7.4106317 6.5820312,7.4101562 7.1414236,7.4096808 7.6863769,7.1691468 8.1992188,6.734375 A 0.29419935,0.29419935 0 1 0 7.8203125,6.2851562 C 7.3809617,6.6576245 6.9748316,6.8219318 6.5820312,6.8222656 6.1892309,6.8225995 5.7828437,6.6588992 5.34375,6.2851562 4.830651,5.8484233 4.2840016,5.6088997 3.7246094,5.609375 Z"
     id="path4218-0-7-1"
     inkscape:connector-curvature="0" />
</svg>
