<?xml version="1.0" encoding="utf-8"?>
<!-- Generator: Adobe Illustrator 16.2.0, SVG Export Plug-In . SVG Version: 6.00 Build 0)  -->
<!DOCTYPE svg PUBLIC "-//W3C//DTD SVG 1.1//EN" "http://www.w3.org/Graphics/SVG/1.1/DTD/svg11.dtd">
<svg version="1.1" id="Laag_1" xmlns="http://www.w3.org/2000/svg" xmlns:xlink="http://www.w3.org/1999/xlink" x="0px" y="0px"
	 width="16px" height="16px" viewBox="0 0 16 16" enable-background="new 0 0 16 16" xml:space="preserve">
<rect fill="#FFFFFF" fill-opacity="0" width="16" height="16"/>
<g>
	<defs>
		<rect id="SVGID_1_" width="16" height="16"/>
	</defs>
	<clipPath id="SVGID_2_">
		<use xlink:href="#SVGID_1_"  overflow="visible"/>
	</clipPath>
	<g clip-path="url(#SVGID_2_)">
		<path fill="#9AA7B0" fill-opacity="0.8" d="M3,5h4V1L3,5z"/>
	</g>
</g>
<g>
	<defs>
		<rect id="SVGID_3_" width="16" height="16"/>
	</defs>
	<clipPath id="SVGID_4_">
		<use xlink:href="#SVGID_3_"  overflow="visible"/>
	</clipPath>
	<g clip-path="url(#SVGID_4_)">
		<path fill="#9AA7B0" fill-opacity="0.8" d="M3,8V6h5V1h5v7H3z"/>
	</g>
</g>
<g>
	<defs>
		<rect id="SVGID_5_" width="16" height="16"/>
	</defs>
	<clipPath id="SVGID_6_">
		<use xlink:href="#SVGID_5_"  overflow="visible"/>
	</clipPath>
	<g clip-path="url(#SVGID_6_)">
		<path fill="#65B344" fill-opacity="0.698" d="M1,9h15v7H1V9z"/>
	</g>
</g>
<g>
	<defs>
		<rect id="SVGID_7_" width="16" height="16"/>
	</defs>
	<clipPath id="SVGID_8_">
		<use xlink:href="#SVGID_7_"  overflow="visible"/>
	</clipPath>
</g>
<g>
	<path opacity="0.7" fill="#231F20" d="M4.396,11.051v3.908H3.316v-3.908H1.825v-0.994h4.062v0.994H4.396z"/>
	<path opacity="0.7" fill="#231F20" d="M6.55,10.792V9.847h1.12v0.945H6.55z M6.578,14.959v-3.754h1.064v3.754H6.578z"/>
	<path opacity="0.7" fill="#231F20" d="M8.608,14.959V14.14l2.696-3.138H8.692v-0.945h3.999v0.819l-2.696,3.138h2.696v0.945H8.608z"
		/>
</g>
</svg>
