<?xml version="1.0" encoding="UTF-8" standalone="no"?>
<!-- Generator: Adobe Illustrator 16.2.0, SVG Export Plug-In . SVG Version: 6.00 Build 0)  -->

<svg
   xmlns:dc="http://purl.org/dc/elements/1.1/"
   xmlns:cc="http://creativecommons.org/ns#"
   xmlns:rdf="http://www.w3.org/1999/02/22-rdf-syntax-ns#"
   xmlns:svg="http://www.w3.org/2000/svg"
   xmlns="http://www.w3.org/2000/svg"
   xmlns:xlink="http://www.w3.org/1999/xlink"
   xmlns:sodipodi="http://sodipodi.sourceforge.net/DTD/sodipodi-0.dtd"
   xmlns:inkscape="http://www.inkscape.org/namespaces/inkscape"
   version="1.1"
   id="Laag_1"
   x="0px"
   y="0px"
   width="16px"
   height="16px"
   viewBox="0.511 0.495 16 16"
   enable-background="new 0.511 0.495 16 16"
   xml:space="preserve"
   inkscape:version="0.91 r13725"
   sodipodi:docname="word-count.svg"><metadata
     id="metadata23"><rdf:RDF><cc:Work
         rdf:about=""><dc:format>image/svg+xml</dc:format><dc:type
           rdf:resource="http://purl.org/dc/dcmitype/StillImage" /></cc:Work></rdf:RDF></metadata><defs
     id="defs21" /><sodipodi:namedview
     pagecolor="#ffffff"
     bordercolor="#666666"
     borderopacity="1"
     objecttolerance="10"
     gridtolerance="10"
     guidetolerance="10"
     inkscape:pageopacity="0"
     inkscape:pageshadow="2"
     inkscape:window-width="2560"
     inkscape:window-height="1377"
     id="namedview19"
     showgrid="false"
     inkscape:zoom="7.375"
     inkscape:cx="-61.803723"
     inkscape:cy="-2.011554"
     inkscape:window-x="2552"
     inkscape:window-y="-8"
     inkscape:window-maximized="1"
     inkscape:current-layer="Laag_1" /><g
     id="g3"><defs
       id="defs5"><rect
         id="SVGID_1_"
         x="0.511"
         y="0.495"
         width="16.001"
         height="16" /></defs><clipPath
       id="SVGID_2_"><use
         xlink:href="#SVGID_1_"
         overflow="visible"
         id="use9" /></clipPath></g><g
     id="g11"><path
       fill="#6E6E6E"
       d="M8.58,7.141H7.54L6.972,5.789H4.324L3.748,7.141H2.74L5.204,1.5h0.912L8.58,7.141z M5.644,2.677l-0.96,2.24   h1.928L5.644,2.677z"
       id="path13"
       style="fill:#6c707e;fill-opacity:1" /><path
       fill="#6E6E6E"
       d="M13.39,1.925c0.328,0.256,0.494,0.606,0.494,1.05c0,0.171-0.023,0.323-0.068,0.457   c-0.045,0.133-0.102,0.25-0.174,0.349c-0.07,0.099-0.156,0.186-0.254,0.26C13.29,4.116,13.19,4.18,13.091,4.233   c0.164,0.059,0.314,0.126,0.449,0.204c0.135,0.078,0.252,0.169,0.35,0.276s0.174,0.233,0.227,0.379s0.08,0.315,0.08,0.507   c0,0.25-0.049,0.471-0.148,0.663c-0.098,0.192-0.238,0.353-0.42,0.483c-0.18,0.13-0.398,0.229-0.654,0.295s-0.537,0.1-0.846,0.1   H9.54v-5.6h2.508C12.612,1.541,13.06,1.669,13.39,1.925z M12.62,3.72c0.191-0.126,0.287-0.32,0.287-0.583   c0-0.231-0.084-0.409-0.25-0.535c-0.168-0.126-0.412-0.189-0.73-0.189h-1.411v1.496h1.339C12.175,3.909,12.429,3.846,12.62,3.72z    M12.933,6.073c0.191-0.131,0.287-0.324,0.287-0.58c0-0.24-0.094-0.427-0.283-0.56s-0.477-0.2-0.865-0.2h-1.556v1.536h1.628   C12.478,6.269,12.741,6.204,12.933,6.073z"
       id="path15"
       style="fill:#6c707e;fill-opacity:1" /></g><path
     fill="#6E6E6E"
     d="M1.5,8.5v7h14v-7H1.5z M4.478,14.828H3.502v-4.641l-1.008,0.28l-0.208-0.8l1.504-0.48h0.688V14.828z   M9.686,14.828H5.638v-0.775l1.928-1.637c0.192-0.16,0.355-0.305,0.488-0.436c0.133-0.13,0.241-0.254,0.324-0.371  c0.083-0.117,0.143-0.231,0.181-0.344c0.037-0.111,0.056-0.231,0.056-0.359c0-0.276-0.087-0.491-0.26-0.643  c-0.173-0.152-0.388-0.228-0.644-0.228c-0.256,0-0.481,0.069-0.676,0.208c-0.195,0.139-0.401,0.349-0.62,0.632l-0.696-0.544  c0.133-0.187,0.269-0.354,0.408-0.502c0.139-0.148,0.29-0.271,0.452-0.371s0.341-0.177,0.536-0.23  c0.194-0.054,0.417-0.081,0.668-0.081c0.277,0,0.53,0.04,0.76,0.12s0.425,0.195,0.584,0.345c0.16,0.149,0.284,0.326,0.372,0.531  c0.088,0.206,0.132,0.434,0.132,0.685c0,0.224-0.029,0.424-0.088,0.6s-0.147,0.347-0.269,0.512  c-0.119,0.166-0.271,0.334-0.455,0.505c-0.184,0.17-0.399,0.356-0.644,0.56l-1.152,0.96h2.664V14.828z M14.454,13.864  c-0.096,0.216-0.229,0.402-0.399,0.56c-0.171,0.157-0.378,0.28-0.62,0.368c-0.243,0.088-0.508,0.132-0.796,0.132  c-0.491,0-0.911-0.092-1.261-0.276c-0.349-0.184-0.644-0.42-0.884-0.708l0.688-0.64c0.202,0.24,0.42,0.423,0.651,0.548  c0.232,0.126,0.506,0.188,0.82,0.188c0.277,0,0.508-0.077,0.692-0.232c0.184-0.154,0.275-0.362,0.275-0.624  c0-0.282-0.114-0.498-0.344-0.647s-0.544-0.225-0.944-0.225h-0.456l-0.159-0.616l1.512-1.607h-2.424V9.228h3.704v0.736l-1.561,1.6  c0.214,0.027,0.42,0.076,0.62,0.148s0.376,0.171,0.528,0.296c0.151,0.125,0.273,0.281,0.363,0.468  c0.091,0.188,0.137,0.411,0.137,0.672C14.599,13.409,14.551,13.647,14.454,13.864z"
     id="path17"
     style="fill:#6c707e;fill-opacity:1" /></svg>