<?xml version="1.0" encoding="UTF-8" standalone="no"?>
<!-- Generator: Adobe Illustrator 16.2.0, SVG Export Plug-In . SVG Version: 6.00 Build 0)  -->

<svg
   xmlns:dc="http://purl.org/dc/elements/1.1/"
   xmlns:cc="http://creativecommons.org/ns#"
   xmlns:rdf="http://www.w3.org/1999/02/22-rdf-syntax-ns#"
   xmlns:svg="http://www.w3.org/2000/svg"
   xmlns="http://www.w3.org/2000/svg"
   xmlns:xlink="http://www.w3.org/1999/xlink"
   xmlns:sodipodi="http://sodipodi.sourceforge.net/DTD/sodipodi-0.dtd"
   xmlns:inkscape="http://www.inkscape.org/namespaces/inkscape"
   version="1.1"
   id="Laag_1"
   x="0px"
   y="0px"
   width="16px"
   height="16px"
   viewBox="0.511 0.495 16 16"
   enable-background="new 0.511 0.495 16 16"
   xml:space="preserve"
   inkscape:version="0.91 r13725"
   sodipodi:docname="word-count_dark.svg"><metadata
     id="metadata23"><rdf:RDF><cc:Work
         rdf:about=""><dc:format>image/svg+xml</dc:format><dc:type
           rdf:resource="http://purl.org/dc/dcmitype/StillImage" /></cc:Work></rdf:RDF></metadata><defs
     id="defs21" /><sodipodi:namedview
     pagecolor="#ffffff"
     bordercolor="#666666"
     borderopacity="1"
     objecttolerance="10"
     gridtolerance="10"
     guidetolerance="10"
     inkscape:pageopacity="0"
     inkscape:pageshadow="2"
     inkscape:window-width="2560"
     inkscape:window-height="1377"
     id="namedview19"
     showgrid="false"
     inkscape:zoom="29.5"
     inkscape:cx="9.885949"
     inkscape:cy="9.6400188"
     inkscape:window-x="2552"
     inkscape:window-y="-8"
     inkscape:window-maximized="1"
     inkscape:current-layer="Laag_1" /><g
     id="g3"
     transform="matrix(1.0553071,0,0,1.0553071,-0.08333419,-0.71886932)"><defs
       id="defs5"><rect
         id="SVGID_1_"
         x="0.51099998"
         y="0.495"
         width="16.000999"
         height="16" /></defs><clipPath
       id="SVGID_2_"><use
         height="100%"
         width="100%"
         y="0"
         x="0"
         style="overflow:visible"
         xlink:href="#SVGID_1_"
         overflow="visible"
         id="use9" /></clipPath></g><g
     style="font-style:normal;font-weight:normal;font-size:24.7450676px;line-height:125%;font-family:sans-serif;letter-spacing:0px;word-spacing:0px;fill:#6c7ff0;fill-opacity:0;stroke:none;stroke-width:1px;stroke-linecap:butt;stroke-linejoin:miter;stroke-opacity:1"
     id="text4314"
     transform="translate(-0.06779662,0)"><path
       d="m 1.564646,11.677994 0.5656831,-1.5927 2.2737168,0 0.5656832,1.5927 0.713969,0 -2.0650181,-5.6238794 -0.7029849,0 -2.06501815,5.6238794 0.71396905,0 z m 0.7798739,-2.196828 0.9006994,-2.5373361 0.043937,0 0.9006994,2.5373361 -1.8453353,0 z"
       style="font-style:normal;font-variant:normal;font-weight:normal;font-stretch:normal;font-size:7.73283386px;font-family:Inter;-inkscape-font-specification:Inter;fill:#6c7ff0;fill-opacity:0"
       id="path4319"
       inkscape:connector-curvature="0" /><path
       d="m 6.5596833,11.677994 2.0320657,0 c 1.3290808,0 1.878288,-0.648064 1.878288,-1.493843 0,-0.8897154 -0.615112,-1.3730175 -1.1313666,-1.4059699 l 0,-0.054921 C 9.8219725,8.5914507 10.250354,8.2729107 10.250354,7.5479575 c 0,-0.8238104 -0.549207,-1.4938429 -1.7245099,-1.4938429 l -1.9661608,0 0,5.6238794 z m 0.6810166,-0.604128 0,-1.9551766 1.3840015,0 c 0.7359373,0 1.1972711,0.4942862 1.1972711,1.0654616 0,0.494286 -0.3405083,0.889715 -1.2302235,0.889715 l -1.3510491,0 z m 0,-2.5483201 0,-1.8673037 1.2851442,0 c 0.7469215,0 1.0764457,0.3954291 1.0764457,0.8897153 0,0.5931435 -0.4833022,0.9775884 -1.0984139,0.9775884 l -1.263176,0 z"
       style="font-style:normal;font-variant:normal;font-weight:normal;font-stretch:normal;font-size:7.73283386px;font-family:Inter;-inkscape-font-specification:Inter;fill:#6c7ff0;fill-opacity:0"
       id="path4321"
       inkscape:connector-curvature="0" /><path
       d="M 16.114511,7.8115768 C 15.905813,6.6582422 14.983145,5.9772256 13.851779,5.9772256 c -1.438923,0 -2.482416,1.1093981 -2.482416,2.8888286 0,1.7794308 1.043493,2.8888288 2.482416,2.8888288 1.131366,0 2.054034,-0.681017 2.262732,-1.8343515 l -0.681016,0 c -0.164762,0.7798735 -0.834795,1.1972715 -1.581716,1.1972715 -1.021525,0 -1.823368,-0.790858 -1.823368,-2.2517488 0,-1.4608905 0.801843,-2.2517485 1.823368,-2.2517485 0.746921,0 1.416954,0.4173973 1.581716,1.1972711 l 0.681016,0 z"
       style="font-style:normal;font-variant:normal;font-weight:normal;font-stretch:normal;font-size:7.73283386px;font-family:Inter;-inkscape-font-specification:Inter;fill:#6c7ff0;fill-opacity:0"
       id="path4323"
       inkscape:connector-curvature="0" /></g><g
     style="font-style:normal;font-weight:normal;font-size:37.00774002px;line-height:89.99999762%;font-family:sans-serif;letter-spacing:0px;word-spacing:0px;fill:#ebecf0;fill-opacity:1;stroke:none;stroke-width:1px;stroke-linecap:butt;stroke-linejoin:miter;stroke-opacity:1"
     id="text4325"><path
       d="m 5.1620526,7.675786 c 0.8805109,0 1.3404792,-0.4731103 1.4981827,-0.8016591 l 0.039426,0 0,0.6833816 0.7753753,0 0,-3.3249142 c 0,-1.6033183 -1.2222017,-1.7873056 -1.8661574,-1.7873056 -0.7622333,0 -1.6296022,0.2628391 -2.0238608,1.1827758 l 0.7359494,0.262839 C 4.491813,3.5229289 4.8959281,3.1286703 5.6351629,3.1286703 c 0.712951,0 1.0644982,0.3778311 1.0644982,1.0250723 l 0,0.026284 c 0,0.3745457 -0.3811166,0.3416908 -1.3010533,0.4599684 -0.9363642,0.121563 -1.958151,0.3285488 -1.958151,1.4850407 0,0.9856465 0.7622332,1.5507504 1.7215958,1.5507504 z M 5.2803302,6.9792625 c -0.6176718,0 -1.0644982,-0.275981 -1.0644982,-0.8148011 0,-0.5913879 0.5388201,-0.7753752 1.1433499,-0.8542269 0.3285488,-0.039426 1.2090597,-0.1314195 1.3404792,-0.289123 l 0,0.7096655 c 0,0.6308137 -0.4993942,1.2484855 -1.4193309,1.2484855 z"
       style="font-style:normal;font-variant:normal;font-weight:normal;font-stretch:normal;font-size:9.25193501px;line-height:89.99999762%;font-family:Inter;-inkscape-font-specification:Inter;text-align:center;text-anchor:middle;fill:#ebecf0;fill-opacity:1"
       id="path4145" /><path
       d="m 9.0044314,7.5575085 0.7490913,0 0,-0.7753753 0.091994,0 c 0.1708456,0.275981 0.4993946,0.8805109 1.4718986,0.8805109 1.261628,0 2.142138,-1.0119304 2.142138,-2.6152487 0,-1.5901763 -0.88051,-2.6021067 -2.15528,-2.6021067 -0.985646,0 -1.287911,0.6045298 -1.4587566,0.8673689 l -0.06571,0 0,-2.48382914 -0.7753752,0 0,6.72868004 z m 0.7622333,-2.523255 c 0,-1.130208 0.4993943,-1.8924413 1.4456153,-1.8924413 0.985646,0 1.471898,0.8279431 1.471898,1.8924413 0,1.0776401 -0.499394,1.9318671 -1.471898,1.9318671 -0.933079,0 -1.4456153,-0.7885172 -1.4456153,-1.9318671 z"
       style="font-style:normal;font-variant:normal;font-weight:normal;font-stretch:normal;font-size:9.25193501px;line-height:89.99999762%;font-family:Inter;-inkscape-font-specification:Inter;text-align:center;text-anchor:middle;fill:#ebecf0;fill-opacity:1"
       id="path4147" /><path
       d="m 3.6170517,9.1555697 -0.814801,0 -1.68217,1.1170663 0,0.827943 1.6427441,-1.090782 0.039426,0 0,5.874453 0.814801,0 0,-6.7286803 z"
       style="font-style:normal;font-variant:normal;font-weight:normal;font-stretch:normal;font-size:9.25193501px;line-height:89.99999762%;font-family:Inter;-inkscape-font-specification:Inter;text-align:center;text-anchor:middle;fill:#ebecf0;fill-opacity:1"
       id="path4149" /><path
       d="m 5.5522042,15.88425 4.2448509,0 0,-0.722808 -3.1277849,0 0,-0.05257 1.5113246,-1.616461 c 1.1564919,-1.238629 1.4981827,-1.816875 1.4981827,-2.562681 0,-1.0382139 -0.841085,-1.8661569 -2.0238608,-1.8661569 -1.1794903,0 -2.0764286,0.8016591 -2.0764286,1.9844349 l 0.7753752,0 c 0,-0.765519 0.4961088,-1.2747695 1.2747695,-1.2747695 0.7293784,0 1.2879114,0.4468265 1.2879114,1.1564915 0,0.620958 -0.3646892,1.080926 -1.1433499,1.931868 l -2.2209901,2.431261 0,0.591388 z"
       style="font-style:normal;font-variant:normal;font-weight:normal;font-stretch:normal;font-size:9.25193501px;line-height:89.99999762%;font-family:Inter;-inkscape-font-specification:Inter;text-align:center;text-anchor:middle;fill:#ebecf0;fill-opacity:1"
       id="path4151" /><path
       d="m 13.42752,15.976243 c 1.304339,0 2.273558,-0.818086 2.273558,-1.918725 0,-0.854227 -0.505965,-1.475184 -1.353621,-1.61646 l 0,-0.05257 c 0.680096,-0.206986 1.103924,-0.765519 1.103924,-1.524466 0,-0.9527919 -0.752377,-1.8004479 -1.997577,-1.8004479 -1.163063,0 -2.128996,0.7162364 -2.168422,1.7741639 l 0.788517,0 c 0.02957,-0.67024 0.666954,-1.0644985 1.366763,-1.0644985 0.74252,0 1.222202,0.4501115 1.222202,1.1302085 0,0.709665 -0.555248,1.169633 -1.353621,1.169633 l -0.538821,0 0,0.722808 0.538821,0 c 1.021786,0 1.590176,0.519107 1.590176,1.261627 0,0.712951 -0.620957,1.195918 -1.485041,1.195918 -0.778661,0 -1.396332,-0.40083 -1.445615,-1.051356 l -0.827943,0 c 0.04928,1.057927 0.982361,1.774163 2.2867,1.774163 z"
       style="font-style:normal;font-variant:normal;font-weight:normal;font-stretch:normal;font-size:9.25193501px;line-height:89.99999762%;font-family:Inter;-inkscape-font-specification:Inter;text-align:center;text-anchor:middle;fill:#ebecf0;fill-opacity:1"
       id="path4153" /></g></svg>