<?xml version="1.0" encoding="utf-8"?>
<!-- Generator: Adobe Illustrator 16.2.0, SVG Export Plug-In . SVG Version: 6.00 Build 0)  -->
<!DOCTYPE svg PUBLIC "-//W3C//DTD SVG 1.1//EN" "http://www.w3.org/Graphics/SVG/1.1/DTD/svg11.dtd">
<svg version="1.1" id="Laag_1" xmlns="http://www.w3.org/2000/svg" xmlns:xlink="http://www.w3.org/1999/xlink" x="0px" y="0px"
	 width="16px" height="16px" viewBox="0.511 0.495 16 16" enable-background="new 0.511 0.495 16 16" xml:space="preserve">
<rect x="0.511" y="0.495" fill="#FFFFFF" fill-opacity="0" width="16.001" height="16"/>
<g>
	<defs>
		<rect id="SVGID_1_" x="0.511" y="0.495" width="16.001" height="16"/>
	</defs>
	<clipPath id="SVGID_2_">
		<use xlink:href="#SVGID_1_"  overflow="visible"/>
	</clipPath>
	<g clip-path="url(#SVGID_2_)">
		<path fill="#40B6E0" fill-opacity="0.6" d="M1.511,8.494c0-3.866,3.134-7,7-7s7.001,3.134,7.001,7c0,3.867-3.135,7-7.001,7
			S1.511,12.361,1.511,8.494z"/>
	</g>
</g>
<g>
	<defs>
		<rect id="SVGID_3_" x="0.511" y="0.495" width="16.001" height="16"/>
	</defs>
	<clipPath id="SVGID_4_">
		<use xlink:href="#SVGID_3_"  overflow="visible"/>
	</clipPath>
</g>
<polygon opacity="0.7" fill="#231F20" points="6.938,5.494 6.938,6.494 7.938,6.494 7.938,10.494 6.938,10.494 6.938,11.494 
	9.938,11.494 9.938,10.494 8.938,10.494 8.938,6.494 9.938,6.494 9.938,5.494 "/>
</svg>
