<?xml version="1.0" encoding="utf-8"?>
<!-- Generator: Adobe Illustrator 16.2.0, SVG Export Plug-In . SVG Version: 6.00 Build 0)  -->
<!DOCTYPE svg PUBLIC "-//W3C//DTD SVG 1.1//EN" "http://www.w3.org/Graphics/SVG/1.1/DTD/svg11.dtd">
<svg version="1.1" id="Laag_1" xmlns="http://www.w3.org/2000/svg" xmlns:xlink="http://www.w3.org/1999/xlink" x="0px" y="0px"
	 width="13px" height="13px" viewBox="0 0 13 13" enable-background="new 0 0 13 13" xml:space="preserve">
<g>
	<path fill="#AFB1B3" d="M3.963,9.803v0.989H2.924V9.783c-0.86-0.111-1.699-0.45-2.359-0.95l0.78-1.14
		c0.539,0.41,1.039,0.689,1.629,0.811v-1.59c-1.439-0.39-2.149-0.949-2.149-2.129c0-1.109,0.84-1.839,2.1-1.969v-0.58h1.039v0.6
		c0.71,0.1,1.319,0.36,1.859,0.74l-0.67,1.169c-0.399-0.27-0.819-0.479-1.239-0.589v1.509c1.519,0.41,2.169,1.04,2.169,2.16
		C6.082,8.934,5.232,9.662,3.963,9.803z M2.974,4.065c-0.479,0.07-0.689,0.31-0.689,0.63c0,0.31,0.14,0.52,0.689,0.72V4.065z
		 M3.913,7.154v1.398c0.47-0.069,0.709-0.289,0.709-0.649C4.622,7.564,4.452,7.354,3.913,7.154z"/>
	<path fill="#AFB1B3" d="M10.522,9.803v0.989H9.483V9.783c-0.86-0.111-1.699-0.45-2.359-0.95l0.78-1.14
		c0.539,0.41,1.039,0.689,1.629,0.811v-1.59c-1.439-0.39-2.149-0.949-2.149-2.129c0-1.109,0.84-1.839,2.1-1.969v-0.58h1.039v0.6
		c0.71,0.1,1.319,0.36,1.859,0.74l-0.67,1.169c-0.399-0.27-0.819-0.479-1.239-0.589v1.509c1.519,0.41,2.169,1.04,2.169,2.16
		C12.642,8.934,11.792,9.662,10.522,9.803z M9.533,4.065c-0.479,0.07-0.689,0.31-0.689,0.63c0,0.31,0.14,0.52,0.689,0.72V4.065z
		 M10.473,7.154v1.398c0.47-0.069,0.709-0.289,0.709-0.649C11.182,7.564,11.012,7.354,10.473,7.154z"/>
</g>
</svg>
