<?xml version="1.0" encoding="utf-8"?>
<!-- Generator: Adobe Illustrator 16.2.0, SVG Export Plug-In . SVG Version: 6.00 Build 0)  -->
<!DOCTYPE svg PUBLIC "-//W3C//DTD SVG 1.1//EN" "http://www.w3.org/Graphics/SVG/1.1/DTD/svg11.dtd">
<svg version="1.1" id="Laag_2" xmlns="http://www.w3.org/2000/svg" xmlns:xlink="http://www.w3.org/1999/xlink" x="0px" y="0px"
	 width="16px" height="16px" viewBox="0.511 0.495 16 16" enable-background="new 0.511 0.495 16 16" xml:space="preserve">
<path fill="#65B344" d="M1.511,2.495"/>
<g>
	<path fill="#6E6E6E" d="M4.884,6.408C4.933,6.578,5.05,6.737,5.235,6.884c0.184,0.147,0.45,0.283,0.797,0.408
		c0.348,0.125,0.793,0.254,1.338,0.39C7.966,7.841,8.489,8.018,8.938,8.21c0.449,0.193,0.809,0.429,1.078,0.706
		s0.453,0.602,0.553,0.969c0.1,0.369,0.107,0.801,0.018,1.301c-0.1,0.566-0.293,1.07-0.578,1.512s-0.641,0.816-1.066,1.123
		s-0.911,0.537-1.459,0.697c-0.549,0.158-1.135,0.238-1.758,0.238c-0.918,0-1.769-0.156-2.553-0.469
		c-0.784-0.311-1.476-0.789-2.076-1.436l1.522-1.496c0.49,0.498,1.007,0.881,1.548,1.146c0.543,0.268,1.188,0.4,1.936,0.4
		c0.646,0,1.184-0.137,1.611-0.408c0.427-0.271,0.683-0.641,0.765-1.105c0.039-0.215,0.035-0.408-0.01-0.578
		c-0.043-0.17-0.152-0.326-0.326-0.467c-0.174-0.143-0.423-0.275-0.747-0.4C7.069,9.82,6.64,9.689,6.107,9.553
		C5.498,9.406,4.96,9.242,4.499,9.061S3.662,8.652,3.375,8.38c-0.287-0.272-0.485-0.6-0.594-0.986
		C2.673,7.008,2.667,6.538,2.766,5.983C2.858,5.462,3.042,4.989,3.32,4.564c0.277-0.425,0.62-0.791,1.027-1.097
		C4.755,3.161,5.223,2.926,5.75,2.762c0.526-0.165,1.085-0.247,1.674-0.247c0.873,0,1.635,0.127,2.288,0.382
		c0.652,0.256,1.24,0.627,1.768,1.114l-1.402,1.581c-0.473-0.396-0.959-0.699-1.453-0.91C8.126,4.473,7.606,4.368,7.062,4.368
		c-0.611,0-1.112,0.14-1.501,0.417C5.172,5.062,4.943,5.399,4.873,5.796C4.832,6.034,4.834,6.238,4.884,6.408z"/>
	<path fill="#6E6E6E" d="M11.535,14.586l2.188-12.411h2.074l-2.188,12.411H11.535z"/>
</g>
</svg>
