<?xml version="1.0" encoding="utf-8"?>
<!-- Generator: Adobe Illustrator 16.2.0, SVG Export Plug-In . SVG Version: 6.00 Build 0)  -->
<!DOCTYPE svg PUBLIC "-//W3C//DTD SVG 1.1//EN" "http://www.w3.org/Graphics/SVG/1.1/DTD/svg11.dtd">
<svg version="1.1" id="Laag_2" xmlns="http://www.w3.org/2000/svg" xmlns:xlink="http://www.w3.org/1999/xlink" x="0px" y="0px"
	 width="16px" height="16px" viewBox="0.511 0.495 16 16" enable-background="new 0.511 0.495 16 16" xml:space="preserve">
<path fill="#65B344" d="M1.511,2.495"/>
<g>
	<path fill="#6E6E6E" d="M9.191,14.459h-5.66V2.561h5.525c2.43,0,3.926,1.207,3.926,3.077v0.034c0,1.343-0.713,2.091-1.563,2.567
		c1.377,0.527,2.227,1.326,2.227,2.924v0.033C13.646,13.371,11.879,14.459,9.191,14.459z M10.383,6.079
		c0-0.782-0.613-1.224-1.717-1.224H6.082v2.516h2.414c1.155,0,1.887-0.374,1.887-1.258V6.079z M11.045,10.839
		c0-0.799-0.596-1.292-1.938-1.292H6.082v2.617h3.11c1.156,0,1.854-0.407,1.854-1.291V10.839z"/>
</g>
</svg>
