<?xml version="1.0" encoding="utf-8" ?>
<svg xmlns="http://www.w3.org/2000/svg" xmlns:xlink="http://www.w3.org/1999/xlink" width="32" height="32">
	<rect fill="rgb(255,255,255)" fill-opacity="0" stroke="none" width="32" height="32"/>
	<defs>
		<clipPath id="clip_0">
			<rect width="32" height="32" clip-rule="evenodd"/>
		</clipPath>
	</defs>
	<g clip-path="url(#clip_0)">
		<path fill="rgb(101,179,68)" fill-opacity="0.69803923" stroke="none" transform="translate(2 18)" d="M0 0L30 0L30 14L0 14L0 0Z"/>
	</g>
	<defs>
		<clipPath id="clip_1">
			<rect width="32" height="32" clip-rule="evenodd"/>
		</clipPath>
	</defs>
	<g clip-path="url(#clip_1)">
		<path fill="rgb(154,167,176)" fill-opacity="0.80000001" stroke="none" transform="translate(6 2)" d="M0 14L20 14L20 0L10 0L10 10L0 10L0 14Z"/>
	</g>
	<defs>
		<clipPath id="clip_2">
			<rect width="32" height="32" clip-rule="evenodd"/>
		</clipPath>
	</defs>
	<g clip-path="url(#clip_2)">
		<path fill="rgb(154,167,176)" fill-opacity="0.80000001" stroke="none" transform="translate(6 2)" d="M0 8L8 0L8 8L0 8Z"/>
	</g>
	<defs>
		<clipPath id="clip_3">
			<rect width="32" height="32" clip-rule="evenodd"/>
		</clipPath>
	</defs>
	<g clip-path="url(#clip_3)">
		<text fill="rgb(35,31,32)" fill-opacity="0.69803923" stroke="none" transform="translate(3.5 25)" font-size="14" font-weight="bold" font-family="Gotham" x="0" y="4.9000001">
				T
		</text>
	</g>
	<defs>
		<clipPath id="clip_4">
			<rect width="32" height="32" clip-rule="evenodd"/>
		</clipPath>
	</defs>
	<g clip-path="url(#clip_4)">
		<text fill="rgb(35,31,32)" fill-opacity="0.69803923" stroke="none" transform="translate(3.5 25)" font-size="14" font-weight="bold" font-family="Gotham" x="8.6719999" y="4.9000001">
				E
		</text>
	</g>
	<defs>
		<clipPath id="clip_5">
			<rect width="32" height="32" clip-rule="evenodd"/>
		</clipPath>
	</defs>
	<g clip-path="url(#clip_5)">
		<text fill="rgb(35,31,32)" fill-opacity="0.69803923" stroke="none" transform="translate(3.5 25)" font-size="14" font-weight="bold" font-family="Gotham" x="17.652" y="4.9000001">
				X
		</text>
	</g>

</svg>