<?xml version="1.0" encoding="utf-8"?>
<!-- Generator: Adobe Illustrator 16.2.0, SVG Export Plug-In . SVG Version: 6.00 Build 0)  -->
<!DOCTYPE svg PUBLIC "-//W3C//DTD SVG 1.1//EN" "http://www.w3.org/Graphics/SVG/1.1/DTD/svg11.dtd">
<svg version="1.1" id="Laag_1" xmlns="http://www.w3.org/2000/svg" xmlns:xlink="http://www.w3.org/1999/xlink" x="0px" y="0px"
	 width="16px" height="16px" viewBox="0.511 0.495 16 16" enable-background="new 0.511 0.495 16 16" xml:space="preserve">
<rect x="0.511" y="0.495" fill="#FFFFFF" fill-opacity="0" width="16.001" height="16"/>
<g>
	<defs>
		<rect id="SVGID_1_" x="0.511" y="0.495" width="16.001" height="16"/>
	</defs>
	<clipPath id="SVGID_2_">
		<use xlink:href="#SVGID_1_"  overflow="visible"/>
	</clipPath>
	<g clip-path="url(#SVGID_2_)">
		<path fill="#F4AF3D" fill-opacity="0.6" d="M1.511,8.494c0-3.866,3.134-7,7-7s7.001,3.134,7.001,7c0,3.867-3.135,7-7.001,7
			S1.511,12.361,1.511,8.494z"/>
	</g>
</g>
<g>
	<defs>
		<rect id="SVGID_3_" x="0.511" y="0.495" width="16.001" height="16"/>
	</defs>
	<clipPath id="SVGID_4_">
		<use xlink:href="#SVGID_3_"  overflow="visible"/>
	</clipPath>
</g>
<g opacity="0.7">
	<path fill="#231F20" d="M7.485,7.271c0.042,0.09,0.119,0.174,0.23,0.252c0.111,0.078,0.265,0.15,0.46,0.216S8.619,7.874,8.92,7.946
		C9.25,8.03,9.545,8.123,9.799,8.225c0.256,0.102,0.469,0.227,0.637,0.373c0.168,0.147,0.297,0.318,0.383,0.514
		c0.088,0.195,0.131,0.424,0.131,0.688c0,0.3-0.055,0.567-0.164,0.801c-0.111,0.233-0.264,0.433-0.461,0.595
		c-0.195,0.161-0.432,0.284-0.707,0.368s-0.578,0.126-0.908,0.126c-0.486,0-0.951-0.082-1.395-0.248
		c-0.444-0.164-0.855-0.418-1.232-0.76L6.747,9.89c0.307,0.265,0.615,0.467,0.928,0.607c0.312,0.142,0.666,0.212,1.062,0.212
		c0.342,0,0.613-0.072,0.814-0.217c0.201-0.144,0.301-0.338,0.301-0.584c0-0.114-0.02-0.217-0.059-0.307S9.682,9.43,9.576,9.354
		c-0.105-0.074-0.25-0.145-0.432-0.211C8.961,9.076,8.721,9.008,8.426,8.936C8.089,8.857,7.791,8.771,7.529,8.675
		C7.267,8.578,7.047,8.458,6.87,8.314C6.693,8.17,6.557,7.997,6.464,7.792C6.371,7.589,6.324,7.34,6.324,7.045
		c0-0.276,0.054-0.526,0.161-0.751c0.106-0.225,0.254-0.418,0.441-0.581C7.114,5.552,7.339,5.427,7.603,5.34
		s0.551-0.131,0.863-0.131c0.461,0,0.877,0.068,1.247,0.203s0.715,0.332,1.039,0.589l-0.594,0.837
		c-0.289-0.21-0.572-0.37-0.855-0.481C9.021,6.246,8.736,6.19,8.448,6.19c-0.323,0-0.576,0.074-0.756,0.221s-0.27,0.326-0.27,0.536
		C7.422,7.073,7.443,7.181,7.485,7.271z"/>
</g>
</svg>
