<?xml version="1.0" encoding="utf-8"?>
<!-- Generator: Adobe Illustrator 16.2.0, SVG Export Plug-In . SVG Version: 6.00 Build 0)  -->
<!DOCTYPE svg PUBLIC "-//W3C//DTD SVG 1.1//EN" "http://www.w3.org/Graphics/SVG/1.1/DTD/svg11.dtd">
<svg version="1.1" id="Laag_1" xmlns="http://www.w3.org/2000/svg" xmlns:xlink="http://www.w3.org/1999/xlink" x="0px" y="0px"
	 width="40px" height="40px" viewBox="0 0 40 40" enable-background="new 0 0 40 40" xml:space="preserve">
<path fill="#FFFFFF" d="M17.368,31.389"/>
<line fill="none" x1="38.019" y1="19.126" x2="28.03" y2="9.137"/>
<line fill="none" x1="39.821" y1="19.126" x2="29.831" y2="9.137"/>
<line fill="none" x1="38.919" y1="20.028" x2="28.931" y2="10.039"/>
<g>
	<path fill="#A1CE8F" d="M18.325,18.739l5.612-7.441l5.105-1.481l8.63,6.509C35.964,8.146,28.716,2,20.028,2
		C10.071,2,2,10.071,2,20.028s8.071,18.028,18.028,18.028c1.793,0,3.525-0.271,5.162-0.759l-7.83-5.905L18.325,18.739z"/>
	<path fill="#74915D" d="M38.056,20.028c0-1.27-0.134-2.506-0.384-3.701l-8.63-6.51l-5.105,1.481l-5.612,7.441L17.36,31.392
		l7.83,5.905C32.628,35.075,38.056,28.189,38.056,20.028z"/>
</g>
<g>
	<path fill="#FFFFFF" d="M29.046,13.827H22.57v17.563h-5.203V13.827h-6.358V9.811h18.037V13.827z"/>
</g>
</svg>
