<?xml version="1.0" encoding="utf-8"?>
<!-- Generator: Adobe Illustrator 16.2.0, SVG Export Plug-In . SVG Version: 6.00 Build 0)  -->
<!DOCTYPE svg PUBLIC "-//W3C//DTD SVG 1.1//EN" "http://www.w3.org/Graphics/SVG/1.1/DTD/svg11.dtd">
<svg version="1.1" id="Laag_1" xmlns="http://www.w3.org/2000/svg" xmlns:xlink="http://www.w3.org/1999/xlink" x="0px" y="0px"
	 width="40px" height="40px" viewBox="0 0 40 40" enable-background="new 0 0 40 40" xml:space="preserve">
<path fill="#FFFFFF" d="M17.334,31.326"/>
<line fill="none" x1="37.941" y1="19.09" x2="27.975" y2="9.122"/>
<line fill="none" x1="39.741" y1="19.09" x2="29.771" y2="9.122"/>
<line fill="none" x1="38.84" y1="19.989" x2="28.873" y2="10.021"/>
<g>
	<path fill="#A1CE8F" d="M18.29,18.704l5.6-7.426L28.984,9.8l8.611,6.496C35.891,8.132,28.658,2,19.989,2
		C10.054,2,2,10.054,2,19.989c0,9.935,8.054,17.989,17.989,17.989c1.79,0,3.518-0.271,5.15-0.757l-7.813-5.893L18.29,18.704z"/>
	<path fill="#74915D" d="M37.979,19.989c0-1.267-0.133-2.501-0.383-3.693L28.984,9.8l-5.095,1.478l-5.6,7.426l-0.963,12.625
		l7.813,5.893C32.563,35.004,37.979,28.133,37.979,19.989z"/>
</g>
<g>
	<path fill="#FFFFFF" d="M28.987,13.802h-6.461v17.526h-5.192V13.802H10.99V9.794h17.997V13.802z"/>
</g>
</svg>
